M48
; DRILL file {KiCad 9.0.1} date 2025-04-16T06:47:57+0700
; FORMAT={-:-/ absolute / metric / decimal}
; #@! TF.CreationDate,2025-04-16T06:47:57+07:00
; #@! TF.GenerationSoftware,Kicad,Pcbnew,9.0.1
; #@! TF.FileFunction,Plated,1,2,PTH
FMAT,2
METRIC
; #@! TA.AperFunction,Plated,PTH,ViaDrill
T1C0.400
; #@! TA.AperFunction,Plated,PTH,ComponentDrill
T2C0.400
; #@! TA.AperFunction,Plated,PTH,ComponentDrill
T3C0.991
; #@! TA.AperFunction,Plated,PTH,ComponentDrill
T4C1.000
; #@! TA.AperFunction,Plated,PTH,ComponentDrill
T5C1.092
; #@! TA.AperFunction,Plated,PTH,ComponentDrill
T6C2.200
%
G90
G05
T1
X79.201Y-86.779
X95.703Y-93.482
X115.944Y-95.762
X200.982Y-119.04
X218.664Y-108.56
X234.201Y-99.335
T2
X71.277Y-140.782
X71.332Y-142.043
X72.13Y-139.851
X72.263Y-142.897
X73.392Y-139.796
X73.525Y-142.841
X74.323Y-140.649
X74.378Y-141.91
X88.72Y-92.857
X88.775Y-94.119
X89.573Y-91.926
X89.706Y-94.972
X90.835Y-91.871
X90.968Y-94.917
X91.766Y-92.724
X91.821Y-93.986
X134.54Y-177.482
X134.595Y-178.744
X135.393Y-176.551
X135.526Y-179.597
X136.655Y-176.496
X136.788Y-179.542
X137.586Y-177.349
X137.641Y-178.611
X157.507Y-114.382
X157.562Y-115.643
X158.36Y-113.451
X158.493Y-116.497
X159.622Y-113.396
X159.754Y-116.442
X160.553Y-114.249
X160.608Y-115.511
X213.363Y-115.51
X213.418Y-114.249
X214.216Y-116.442
X214.349Y-113.396
X215.477Y-116.497
X215.61Y-113.451
X216.408Y-115.643
X216.464Y-114.382
X236.329Y-178.611
X236.384Y-177.349
X237.182Y-179.542
X237.315Y-176.496
X238.444Y-179.597
X238.577Y-176.551
X239.375Y-178.744
X239.43Y-177.482
X282.149Y-93.986
X282.204Y-92.724
X283.002Y-94.917
X283.135Y-91.871
X284.264Y-94.972
X284.397Y-91.926
X285.195Y-94.119
X285.25Y-92.857
X299.592Y-141.91
X299.647Y-140.649
X300.445Y-142.841
X300.578Y-139.796
X301.707Y-142.897
X301.84Y-139.851
X302.638Y-142.043
X302.693Y-140.782
T3
X60.824Y-136.871
X66.639Y-120.896
X67.985Y-139.477
X72.453Y-104.921
X73.799Y-123.502
X77.739Y-143.027
X78.267Y-88.946
X79.613Y-107.527
X83.553Y-127.052
X84.899Y-145.633
X85.428Y-91.553
X89.368Y-111.078
X90.549Y-160.46
X90.714Y-129.659
X95.182Y-95.103
X96.363Y-144.485
X96.528Y-113.684
X97.709Y-163.066
X102.178Y-128.51
X102.342Y-97.709
X103.524Y-147.091
X107.992Y-112.535
X108.319Y-164.267
X109.338Y-131.116
X113.806Y-96.561
X114.133Y-148.292
X115.153Y-115.142
X115.479Y-166.873
X119.947Y-132.317
X120.967Y-99.167
X121.293Y-150.898
X124.378Y-172.773
X125.762Y-116.343
X127.108Y-134.924
X130.192Y-156.798
X131.538Y-175.379
X131.576Y-100.368
X132.922Y-118.949
X136.007Y-140.823
X137.353Y-159.404
X138.736Y-102.974
X140.934Y-182.357
X141.821Y-124.848
X143.167Y-143.429
X146.252Y-165.303
X147.176Y-186.727
X147.635Y-108.873
X148.981Y-127.454
X152.066Y-149.329
X153.412Y-167.91
X154.796Y-111.48
X157.88Y-133.354
X159.227Y-151.935
X163.695Y-117.379
X165.041Y-135.96
X165.967Y-197.932
X170.855Y-119.985
X171.805Y-193.034
X202.166Y-193.034
X203.115Y-119.985
X208.003Y-197.932
X208.929Y-135.96
X210.275Y-117.379
X214.744Y-151.935
X216.09Y-133.354
X219.174Y-111.48
X220.558Y-167.91
X221.904Y-149.329
X224.989Y-127.454
X226.335Y-108.873
X226.794Y-186.727
X227.718Y-165.303
X230.803Y-143.429
X232.149Y-124.848
X233.036Y-182.357
X235.234Y-102.974
X236.617Y-159.404
X237.964Y-140.823
X241.048Y-118.949
X242.394Y-100.368
X242.432Y-175.379
X243.778Y-156.798
X246.862Y-134.924
X248.209Y-116.343
X249.592Y-172.773
X252.677Y-150.898
X253.003Y-99.167
X254.023Y-132.317
X258.491Y-166.873
X258.818Y-115.142
X259.837Y-148.292
X260.164Y-96.561
X264.632Y-131.116
X265.652Y-164.267
X265.978Y-112.535
X270.446Y-147.091
X271.628Y-97.709
X271.792Y-128.51
X276.261Y-163.066
X277.442Y-113.684
X277.607Y-144.485
X278.788Y-95.103
X283.257Y-129.659
X283.421Y-160.46
X284.603Y-111.078
X288.542Y-91.553
X289.071Y-145.633
X290.417Y-127.052
X294.357Y-107.527
X295.703Y-88.946
X296.231Y-143.027
X300.171Y-123.502
X301.517Y-104.921
X305.985Y-139.477
X307.332Y-120.896
X313.146Y-136.871
T4
X183.165Y-163.333
X185.705Y-163.333
X188.245Y-163.333
X190.785Y-163.333
T5
X179.365Y-137.043
X179.365Y-157.363
X179.365Y-139.583
X179.365Y-144.663
X179.365Y-147.203
X179.365Y-149.743
X179.365Y-154.823
X179.365Y-159.903
X179.365Y-131.963
X179.365Y-134.503
X179.365Y-142.123
X179.365Y-152.283
X194.605Y-139.583
X194.605Y-149.743
X194.605Y-157.363
X194.605Y-159.903
X194.605Y-131.963
X194.605Y-137.043
X194.605Y-142.123
X194.605Y-144.663
X194.605Y-147.203
X194.605Y-152.283
X194.605Y-134.503
X194.605Y-154.823
T6
X72.828Y-141.346
X90.271Y-93.422
X136.091Y-178.047
X159.057Y-114.946
X214.913Y-114.946
X237.88Y-178.047
X283.7Y-93.422
X301.143Y-141.346
M30
