%TF.GenerationSoftware,KiCad,Pcbnew,9.0.1*%
%TF.CreationDate,2025-04-16T06:47:59+07:00*%
%TF.ProjectId,tutorial,7475746f-7269-4616-9c2e-6b696361645f,v1.0.0*%
%TF.SameCoordinates,Original*%
%TF.FileFunction,Legend,Top*%
%TF.FilePolarity,Positive*%
%FSLAX46Y46*%
G04 Gerber Fmt 4.6, Leading zero omitted, Abs format (unit mm)*
G04 Created by KiCad (PCBNEW 9.0.1) date 2025-04-16 06:47:59*
%MOMM*%
%LPD*%
G01*
G04 APERTURE LIST*
%ADD10C,0.150000*%
%ADD11C,0.100000*%
%ADD12C,1.752600*%
%ADD13R,1.752600X1.752600*%
G04 APERTURE END LIST*
D10*
X190813668Y-145025511D02*
X190813668Y-144225511D01*
X190813668Y-144225511D02*
X191118430Y-144225511D01*
X191118430Y-144225511D02*
X191194620Y-144263606D01*
X191194620Y-144263606D02*
X191232715Y-144301701D01*
X191232715Y-144301701D02*
X191270811Y-144377892D01*
X191270811Y-144377892D02*
X191270811Y-144492177D01*
X191270811Y-144492177D02*
X191232715Y-144568368D01*
X191232715Y-144568368D02*
X191194620Y-144606463D01*
X191194620Y-144606463D02*
X191118430Y-144644558D01*
X191118430Y-144644558D02*
X190813668Y-144644558D01*
X191766049Y-144225511D02*
X191842239Y-144225511D01*
X191842239Y-144225511D02*
X191918430Y-144263606D01*
X191918430Y-144263606D02*
X191956525Y-144301701D01*
X191956525Y-144301701D02*
X191994620Y-144377892D01*
X191994620Y-144377892D02*
X192032715Y-144530273D01*
X192032715Y-144530273D02*
X192032715Y-144720749D01*
X192032715Y-144720749D02*
X191994620Y-144873130D01*
X191994620Y-144873130D02*
X191956525Y-144949320D01*
X191956525Y-144949320D02*
X191918430Y-144987416D01*
X191918430Y-144987416D02*
X191842239Y-145025511D01*
X191842239Y-145025511D02*
X191766049Y-145025511D01*
X191766049Y-145025511D02*
X191689858Y-144987416D01*
X191689858Y-144987416D02*
X191651763Y-144949320D01*
X191651763Y-144949320D02*
X191613668Y-144873130D01*
X191613668Y-144873130D02*
X191575572Y-144720749D01*
X191575572Y-144720749D02*
X191575572Y-144530273D01*
X191575572Y-144530273D02*
X191613668Y-144377892D01*
X191613668Y-144377892D02*
X191651763Y-144301701D01*
X191651763Y-144301701D02*
X191689858Y-144263606D01*
X191689858Y-144263606D02*
X191766049Y-144225511D01*
X192299382Y-144225511D02*
X192794620Y-144225511D01*
X192794620Y-144225511D02*
X192527954Y-144530273D01*
X192527954Y-144530273D02*
X192642239Y-144530273D01*
X192642239Y-144530273D02*
X192718430Y-144568368D01*
X192718430Y-144568368D02*
X192756525Y-144606463D01*
X192756525Y-144606463D02*
X192794620Y-144682654D01*
X192794620Y-144682654D02*
X192794620Y-144873130D01*
X192794620Y-144873130D02*
X192756525Y-144949320D01*
X192756525Y-144949320D02*
X192718430Y-144987416D01*
X192718430Y-144987416D02*
X192642239Y-145025511D01*
X192642239Y-145025511D02*
X192413668Y-145025511D01*
X192413668Y-145025511D02*
X192337477Y-144987416D01*
X192337477Y-144987416D02*
X192299382Y-144949320D01*
X190813667Y-160265511D02*
X190813667Y-159465511D01*
X190813667Y-159465511D02*
X191118429Y-159465511D01*
X191118429Y-159465511D02*
X191194619Y-159503606D01*
X191194619Y-159503606D02*
X191232714Y-159541701D01*
X191232714Y-159541701D02*
X191270810Y-159617892D01*
X191270810Y-159617892D02*
X191270810Y-159732177D01*
X191270810Y-159732177D02*
X191232714Y-159808368D01*
X191232714Y-159808368D02*
X191194619Y-159846463D01*
X191194619Y-159846463D02*
X191118429Y-159884558D01*
X191118429Y-159884558D02*
X190813667Y-159884558D01*
X191766048Y-159465511D02*
X191842238Y-159465511D01*
X191842238Y-159465511D02*
X191918429Y-159503606D01*
X191918429Y-159503606D02*
X191956524Y-159541701D01*
X191956524Y-159541701D02*
X191994619Y-159617892D01*
X191994619Y-159617892D02*
X192032714Y-159770273D01*
X192032714Y-159770273D02*
X192032714Y-159960749D01*
X192032714Y-159960749D02*
X191994619Y-160113130D01*
X191994619Y-160113130D02*
X191956524Y-160189320D01*
X191956524Y-160189320D02*
X191918429Y-160227416D01*
X191918429Y-160227416D02*
X191842238Y-160265511D01*
X191842238Y-160265511D02*
X191766048Y-160265511D01*
X191766048Y-160265511D02*
X191689857Y-160227416D01*
X191689857Y-160227416D02*
X191651762Y-160189320D01*
X191651762Y-160189320D02*
X191613667Y-160113130D01*
X191613667Y-160113130D02*
X191575571Y-159960749D01*
X191575571Y-159960749D02*
X191575571Y-159770273D01*
X191575571Y-159770273D02*
X191613667Y-159617892D01*
X191613667Y-159617892D02*
X191651762Y-159541701D01*
X191651762Y-159541701D02*
X191689857Y-159503606D01*
X191689857Y-159503606D02*
X191766048Y-159465511D01*
X192413667Y-160265511D02*
X192566048Y-160265511D01*
X192566048Y-160265511D02*
X192642238Y-160227416D01*
X192642238Y-160227416D02*
X192680334Y-160189320D01*
X192680334Y-160189320D02*
X192756524Y-160075035D01*
X192756524Y-160075035D02*
X192794619Y-159922654D01*
X192794619Y-159922654D02*
X192794619Y-159617892D01*
X192794619Y-159617892D02*
X192756524Y-159541701D01*
X192756524Y-159541701D02*
X192718429Y-159503606D01*
X192718429Y-159503606D02*
X192642238Y-159465511D01*
X192642238Y-159465511D02*
X192489857Y-159465511D01*
X192489857Y-159465511D02*
X192413667Y-159503606D01*
X192413667Y-159503606D02*
X192375572Y-159541701D01*
X192375572Y-159541701D02*
X192337476Y-159617892D01*
X192337476Y-159617892D02*
X192337476Y-159808368D01*
X192337476Y-159808368D02*
X192375572Y-159884558D01*
X192375572Y-159884558D02*
X192413667Y-159922654D01*
X192413667Y-159922654D02*
X192489857Y-159960749D01*
X192489857Y-159960749D02*
X192642238Y-159960749D01*
X192642238Y-159960749D02*
X192718429Y-159922654D01*
X192718429Y-159922654D02*
X192756524Y-159884558D01*
X192756524Y-159884558D02*
X192794619Y-159808368D01*
X181213671Y-142485516D02*
X181213671Y-141685516D01*
X181213671Y-141685516D02*
X181518433Y-141685516D01*
X181518433Y-141685516D02*
X181594623Y-141723611D01*
X181594623Y-141723611D02*
X181632718Y-141761706D01*
X181632718Y-141761706D02*
X181670814Y-141837897D01*
X181670814Y-141837897D02*
X181670814Y-141952182D01*
X181670814Y-141952182D02*
X181632718Y-142028373D01*
X181632718Y-142028373D02*
X181594623Y-142066468D01*
X181594623Y-142066468D02*
X181518433Y-142104563D01*
X181518433Y-142104563D02*
X181213671Y-142104563D01*
X181975575Y-141761706D02*
X182013671Y-141723611D01*
X182013671Y-141723611D02*
X182089861Y-141685516D01*
X182089861Y-141685516D02*
X182280337Y-141685516D01*
X182280337Y-141685516D02*
X182356528Y-141723611D01*
X182356528Y-141723611D02*
X182394623Y-141761706D01*
X182394623Y-141761706D02*
X182432718Y-141837897D01*
X182432718Y-141837897D02*
X182432718Y-141914087D01*
X182432718Y-141914087D02*
X182394623Y-142028373D01*
X182394623Y-142028373D02*
X181937480Y-142485516D01*
X181937480Y-142485516D02*
X182432718Y-142485516D01*
X183194623Y-142485516D02*
X182737480Y-142485516D01*
X182966052Y-142485516D02*
X182966052Y-141685516D01*
X182966052Y-141685516D02*
X182889861Y-141799801D01*
X182889861Y-141799801D02*
X182813671Y-141875992D01*
X182813671Y-141875992D02*
X182737480Y-141914087D01*
X181575569Y-134103614D02*
X181499379Y-134065519D01*
X181499379Y-134065519D02*
X181385093Y-134065519D01*
X181385093Y-134065519D02*
X181270807Y-134103614D01*
X181270807Y-134103614D02*
X181194617Y-134179804D01*
X181194617Y-134179804D02*
X181156522Y-134255995D01*
X181156522Y-134255995D02*
X181118426Y-134408376D01*
X181118426Y-134408376D02*
X181118426Y-134522662D01*
X181118426Y-134522662D02*
X181156522Y-134675043D01*
X181156522Y-134675043D02*
X181194617Y-134751233D01*
X181194617Y-134751233D02*
X181270807Y-134827424D01*
X181270807Y-134827424D02*
X181385093Y-134865519D01*
X181385093Y-134865519D02*
X181461284Y-134865519D01*
X181461284Y-134865519D02*
X181575569Y-134827424D01*
X181575569Y-134827424D02*
X181613665Y-134789328D01*
X181613665Y-134789328D02*
X181613665Y-134522662D01*
X181613665Y-134522662D02*
X181461284Y-134522662D01*
X181956522Y-134865519D02*
X181956522Y-134065519D01*
X181956522Y-134065519D02*
X182413665Y-134865519D01*
X182413665Y-134865519D02*
X182413665Y-134065519D01*
X182794617Y-134865519D02*
X182794617Y-134065519D01*
X182794617Y-134065519D02*
X182985093Y-134065519D01*
X182985093Y-134065519D02*
X183099379Y-134103614D01*
X183099379Y-134103614D02*
X183175569Y-134179804D01*
X183175569Y-134179804D02*
X183213664Y-134255995D01*
X183213664Y-134255995D02*
X183251760Y-134408376D01*
X183251760Y-134408376D02*
X183251760Y-134522662D01*
X183251760Y-134522662D02*
X183213664Y-134675043D01*
X183213664Y-134675043D02*
X183175569Y-134751233D01*
X183175569Y-134751233D02*
X183099379Y-134827424D01*
X183099379Y-134827424D02*
X182985093Y-134865519D01*
X182985093Y-134865519D02*
X182794617Y-134865519D01*
X181632715Y-132325517D02*
X181366048Y-131944564D01*
X181175572Y-132325517D02*
X181175572Y-131525517D01*
X181175572Y-131525517D02*
X181480334Y-131525517D01*
X181480334Y-131525517D02*
X181556524Y-131563612D01*
X181556524Y-131563612D02*
X181594619Y-131601707D01*
X181594619Y-131601707D02*
X181632715Y-131677898D01*
X181632715Y-131677898D02*
X181632715Y-131792183D01*
X181632715Y-131792183D02*
X181594619Y-131868374D01*
X181594619Y-131868374D02*
X181556524Y-131906469D01*
X181556524Y-131906469D02*
X181480334Y-131944564D01*
X181480334Y-131944564D02*
X181175572Y-131944564D01*
X181937476Y-132096945D02*
X182318429Y-132096945D01*
X181861286Y-132325517D02*
X182127953Y-131525517D01*
X182127953Y-131525517D02*
X182394619Y-132325517D01*
X182585095Y-131525517D02*
X182775571Y-132325517D01*
X182775571Y-132325517D02*
X182927952Y-131754088D01*
X182927952Y-131754088D02*
X183080333Y-132325517D01*
X183080333Y-132325517D02*
X183270810Y-131525517D01*
X190813668Y-155185512D02*
X190813668Y-154385512D01*
X190813668Y-154385512D02*
X191118430Y-154385512D01*
X191118430Y-154385512D02*
X191194620Y-154423607D01*
X191194620Y-154423607D02*
X191232715Y-154461702D01*
X191232715Y-154461702D02*
X191270811Y-154537893D01*
X191270811Y-154537893D02*
X191270811Y-154652178D01*
X191270811Y-154652178D02*
X191232715Y-154728369D01*
X191232715Y-154728369D02*
X191194620Y-154766464D01*
X191194620Y-154766464D02*
X191118430Y-154804559D01*
X191118430Y-154804559D02*
X190813668Y-154804559D01*
X191766049Y-154385512D02*
X191842239Y-154385512D01*
X191842239Y-154385512D02*
X191918430Y-154423607D01*
X191918430Y-154423607D02*
X191956525Y-154461702D01*
X191956525Y-154461702D02*
X191994620Y-154537893D01*
X191994620Y-154537893D02*
X192032715Y-154690274D01*
X192032715Y-154690274D02*
X192032715Y-154880750D01*
X192032715Y-154880750D02*
X191994620Y-155033131D01*
X191994620Y-155033131D02*
X191956525Y-155109321D01*
X191956525Y-155109321D02*
X191918430Y-155147417D01*
X191918430Y-155147417D02*
X191842239Y-155185512D01*
X191842239Y-155185512D02*
X191766049Y-155185512D01*
X191766049Y-155185512D02*
X191689858Y-155147417D01*
X191689858Y-155147417D02*
X191651763Y-155109321D01*
X191651763Y-155109321D02*
X191613668Y-155033131D01*
X191613668Y-155033131D02*
X191575572Y-154880750D01*
X191575572Y-154880750D02*
X191575572Y-154690274D01*
X191575572Y-154690274D02*
X191613668Y-154537893D01*
X191613668Y-154537893D02*
X191651763Y-154461702D01*
X191651763Y-154461702D02*
X191689858Y-154423607D01*
X191689858Y-154423607D02*
X191766049Y-154385512D01*
X192299382Y-154385512D02*
X192832716Y-154385512D01*
X192832716Y-154385512D02*
X192489858Y-155185512D01*
X181213666Y-147565517D02*
X181213666Y-146765517D01*
X181213666Y-146765517D02*
X181518428Y-146765517D01*
X181518428Y-146765517D02*
X181594618Y-146803612D01*
X181594618Y-146803612D02*
X181632713Y-146841707D01*
X181632713Y-146841707D02*
X181670809Y-146917898D01*
X181670809Y-146917898D02*
X181670809Y-147032183D01*
X181670809Y-147032183D02*
X181632713Y-147108374D01*
X181632713Y-147108374D02*
X181594618Y-147146469D01*
X181594618Y-147146469D02*
X181518428Y-147184564D01*
X181518428Y-147184564D02*
X181213666Y-147184564D01*
X182432713Y-147565517D02*
X181975570Y-147565517D01*
X182204142Y-147565517D02*
X182204142Y-146765517D01*
X182204142Y-146765517D02*
X182127951Y-146879802D01*
X182127951Y-146879802D02*
X182051761Y-146955993D01*
X182051761Y-146955993D02*
X181975570Y-146994088D01*
X182813666Y-147565517D02*
X182966047Y-147565517D01*
X182966047Y-147565517D02*
X183042237Y-147527422D01*
X183042237Y-147527422D02*
X183080333Y-147489326D01*
X183080333Y-147489326D02*
X183156523Y-147375041D01*
X183156523Y-147375041D02*
X183194618Y-147222660D01*
X183194618Y-147222660D02*
X183194618Y-146917898D01*
X183194618Y-146917898D02*
X183156523Y-146841707D01*
X183156523Y-146841707D02*
X183118428Y-146803612D01*
X183118428Y-146803612D02*
X183042237Y-146765517D01*
X183042237Y-146765517D02*
X182889856Y-146765517D01*
X182889856Y-146765517D02*
X182813666Y-146803612D01*
X182813666Y-146803612D02*
X182775571Y-146841707D01*
X182775571Y-146841707D02*
X182737475Y-146917898D01*
X182737475Y-146917898D02*
X182737475Y-147108374D01*
X182737475Y-147108374D02*
X182775571Y-147184564D01*
X182775571Y-147184564D02*
X182813666Y-147222660D01*
X182813666Y-147222660D02*
X182889856Y-147260755D01*
X182889856Y-147260755D02*
X183042237Y-147260755D01*
X183042237Y-147260755D02*
X183118428Y-147222660D01*
X183118428Y-147222660D02*
X183156523Y-147184564D01*
X183156523Y-147184564D02*
X183194618Y-147108374D01*
X181213664Y-160265518D02*
X181213664Y-159465518D01*
X181213664Y-159465518D02*
X181518426Y-159465518D01*
X181518426Y-159465518D02*
X181594616Y-159503613D01*
X181594616Y-159503613D02*
X181632711Y-159541708D01*
X181632711Y-159541708D02*
X181670807Y-159617899D01*
X181670807Y-159617899D02*
X181670807Y-159732184D01*
X181670807Y-159732184D02*
X181632711Y-159808375D01*
X181632711Y-159808375D02*
X181594616Y-159846470D01*
X181594616Y-159846470D02*
X181518426Y-159884565D01*
X181518426Y-159884565D02*
X181213664Y-159884565D01*
X182432711Y-160265518D02*
X181975568Y-160265518D01*
X182204140Y-160265518D02*
X182204140Y-159465518D01*
X182204140Y-159465518D02*
X182127949Y-159579803D01*
X182127949Y-159579803D02*
X182051759Y-159655994D01*
X182051759Y-159655994D02*
X181975568Y-159694089D01*
X182927950Y-159465518D02*
X183004140Y-159465518D01*
X183004140Y-159465518D02*
X183080331Y-159503613D01*
X183080331Y-159503613D02*
X183118426Y-159541708D01*
X183118426Y-159541708D02*
X183156521Y-159617899D01*
X183156521Y-159617899D02*
X183194616Y-159770280D01*
X183194616Y-159770280D02*
X183194616Y-159960756D01*
X183194616Y-159960756D02*
X183156521Y-160113137D01*
X183156521Y-160113137D02*
X183118426Y-160189327D01*
X183118426Y-160189327D02*
X183080331Y-160227423D01*
X183080331Y-160227423D02*
X183004140Y-160265518D01*
X183004140Y-160265518D02*
X182927950Y-160265518D01*
X182927950Y-160265518D02*
X182851759Y-160227423D01*
X182851759Y-160227423D02*
X182813664Y-160189327D01*
X182813664Y-160189327D02*
X182775569Y-160113137D01*
X182775569Y-160113137D02*
X182737473Y-159960756D01*
X182737473Y-159960756D02*
X182737473Y-159770280D01*
X182737473Y-159770280D02*
X182775569Y-159617899D01*
X182775569Y-159617899D02*
X182813664Y-159541708D01*
X182813664Y-159541708D02*
X182851759Y-159503613D01*
X182851759Y-159503613D02*
X182927950Y-159465518D01*
X191175570Y-136643611D02*
X191099380Y-136605516D01*
X191099380Y-136605516D02*
X190985094Y-136605516D01*
X190985094Y-136605516D02*
X190870808Y-136643611D01*
X190870808Y-136643611D02*
X190794618Y-136719801D01*
X190794618Y-136719801D02*
X190756523Y-136795992D01*
X190756523Y-136795992D02*
X190718427Y-136948373D01*
X190718427Y-136948373D02*
X190718427Y-137062659D01*
X190718427Y-137062659D02*
X190756523Y-137215040D01*
X190756523Y-137215040D02*
X190794618Y-137291230D01*
X190794618Y-137291230D02*
X190870808Y-137367421D01*
X190870808Y-137367421D02*
X190985094Y-137405516D01*
X190985094Y-137405516D02*
X191061285Y-137405516D01*
X191061285Y-137405516D02*
X191175570Y-137367421D01*
X191175570Y-137367421D02*
X191213666Y-137329325D01*
X191213666Y-137329325D02*
X191213666Y-137062659D01*
X191213666Y-137062659D02*
X191061285Y-137062659D01*
X191556523Y-137405516D02*
X191556523Y-136605516D01*
X191556523Y-136605516D02*
X192013666Y-137405516D01*
X192013666Y-137405516D02*
X192013666Y-136605516D01*
X192394618Y-137405516D02*
X192394618Y-136605516D01*
X192394618Y-136605516D02*
X192585094Y-136605516D01*
X192585094Y-136605516D02*
X192699380Y-136643611D01*
X192699380Y-136643611D02*
X192775570Y-136719801D01*
X192775570Y-136719801D02*
X192813665Y-136795992D01*
X192813665Y-136795992D02*
X192851761Y-136948373D01*
X192851761Y-136948373D02*
X192851761Y-137062659D01*
X192851761Y-137062659D02*
X192813665Y-137215040D01*
X192813665Y-137215040D02*
X192775570Y-137291230D01*
X192775570Y-137291230D02*
X192699380Y-137367421D01*
X192699380Y-137367421D02*
X192585094Y-137405516D01*
X192585094Y-137405516D02*
X192394618Y-137405516D01*
X190813670Y-157725509D02*
X190813670Y-156925509D01*
X190813670Y-156925509D02*
X191118432Y-156925509D01*
X191118432Y-156925509D02*
X191194622Y-156963604D01*
X191194622Y-156963604D02*
X191232717Y-157001699D01*
X191232717Y-157001699D02*
X191270813Y-157077890D01*
X191270813Y-157077890D02*
X191270813Y-157192175D01*
X191270813Y-157192175D02*
X191232717Y-157268366D01*
X191232717Y-157268366D02*
X191194622Y-157306461D01*
X191194622Y-157306461D02*
X191118432Y-157344556D01*
X191118432Y-157344556D02*
X190813670Y-157344556D01*
X191766051Y-156925509D02*
X191842241Y-156925509D01*
X191842241Y-156925509D02*
X191918432Y-156963604D01*
X191918432Y-156963604D02*
X191956527Y-157001699D01*
X191956527Y-157001699D02*
X191994622Y-157077890D01*
X191994622Y-157077890D02*
X192032717Y-157230271D01*
X192032717Y-157230271D02*
X192032717Y-157420747D01*
X192032717Y-157420747D02*
X191994622Y-157573128D01*
X191994622Y-157573128D02*
X191956527Y-157649318D01*
X191956527Y-157649318D02*
X191918432Y-157687414D01*
X191918432Y-157687414D02*
X191842241Y-157725509D01*
X191842241Y-157725509D02*
X191766051Y-157725509D01*
X191766051Y-157725509D02*
X191689860Y-157687414D01*
X191689860Y-157687414D02*
X191651765Y-157649318D01*
X191651765Y-157649318D02*
X191613670Y-157573128D01*
X191613670Y-157573128D02*
X191575574Y-157420747D01*
X191575574Y-157420747D02*
X191575574Y-157230271D01*
X191575574Y-157230271D02*
X191613670Y-157077890D01*
X191613670Y-157077890D02*
X191651765Y-157001699D01*
X191651765Y-157001699D02*
X191689860Y-156963604D01*
X191689860Y-156963604D02*
X191766051Y-156925509D01*
X192489860Y-157268366D02*
X192413670Y-157230271D01*
X192413670Y-157230271D02*
X192375575Y-157192175D01*
X192375575Y-157192175D02*
X192337479Y-157115985D01*
X192337479Y-157115985D02*
X192337479Y-157077890D01*
X192337479Y-157077890D02*
X192375575Y-157001699D01*
X192375575Y-157001699D02*
X192413670Y-156963604D01*
X192413670Y-156963604D02*
X192489860Y-156925509D01*
X192489860Y-156925509D02*
X192642241Y-156925509D01*
X192642241Y-156925509D02*
X192718432Y-156963604D01*
X192718432Y-156963604D02*
X192756527Y-157001699D01*
X192756527Y-157001699D02*
X192794622Y-157077890D01*
X192794622Y-157077890D02*
X192794622Y-157115985D01*
X192794622Y-157115985D02*
X192756527Y-157192175D01*
X192756527Y-157192175D02*
X192718432Y-157230271D01*
X192718432Y-157230271D02*
X192642241Y-157268366D01*
X192642241Y-157268366D02*
X192489860Y-157268366D01*
X192489860Y-157268366D02*
X192413670Y-157306461D01*
X192413670Y-157306461D02*
X192375575Y-157344556D01*
X192375575Y-157344556D02*
X192337479Y-157420747D01*
X192337479Y-157420747D02*
X192337479Y-157573128D01*
X192337479Y-157573128D02*
X192375575Y-157649318D01*
X192375575Y-157649318D02*
X192413670Y-157687414D01*
X192413670Y-157687414D02*
X192489860Y-157725509D01*
X192489860Y-157725509D02*
X192642241Y-157725509D01*
X192642241Y-157725509D02*
X192718432Y-157687414D01*
X192718432Y-157687414D02*
X192756527Y-157649318D01*
X192756527Y-157649318D02*
X192794622Y-157573128D01*
X192794622Y-157573128D02*
X192794622Y-157420747D01*
X192794622Y-157420747D02*
X192756527Y-157344556D01*
X192756527Y-157344556D02*
X192718432Y-157306461D01*
X192718432Y-157306461D02*
X192642241Y-157268366D01*
X190813672Y-134865509D02*
X190813672Y-134065509D01*
X190813672Y-134065509D02*
X191118434Y-134065509D01*
X191118434Y-134065509D02*
X191194624Y-134103604D01*
X191194624Y-134103604D02*
X191232719Y-134141699D01*
X191232719Y-134141699D02*
X191270815Y-134217890D01*
X191270815Y-134217890D02*
X191270815Y-134332175D01*
X191270815Y-134332175D02*
X191232719Y-134408366D01*
X191232719Y-134408366D02*
X191194624Y-134446461D01*
X191194624Y-134446461D02*
X191118434Y-134484556D01*
X191118434Y-134484556D02*
X190813672Y-134484556D01*
X191766053Y-134065509D02*
X191842243Y-134065509D01*
X191842243Y-134065509D02*
X191918434Y-134103604D01*
X191918434Y-134103604D02*
X191956529Y-134141699D01*
X191956529Y-134141699D02*
X191994624Y-134217890D01*
X191994624Y-134217890D02*
X192032719Y-134370271D01*
X192032719Y-134370271D02*
X192032719Y-134560747D01*
X192032719Y-134560747D02*
X191994624Y-134713128D01*
X191994624Y-134713128D02*
X191956529Y-134789318D01*
X191956529Y-134789318D02*
X191918434Y-134827414D01*
X191918434Y-134827414D02*
X191842243Y-134865509D01*
X191842243Y-134865509D02*
X191766053Y-134865509D01*
X191766053Y-134865509D02*
X191689862Y-134827414D01*
X191689862Y-134827414D02*
X191651767Y-134789318D01*
X191651767Y-134789318D02*
X191613672Y-134713128D01*
X191613672Y-134713128D02*
X191575576Y-134560747D01*
X191575576Y-134560747D02*
X191575576Y-134370271D01*
X191575576Y-134370271D02*
X191613672Y-134217890D01*
X191613672Y-134217890D02*
X191651767Y-134141699D01*
X191651767Y-134141699D02*
X191689862Y-134103604D01*
X191689862Y-134103604D02*
X191766053Y-134065509D01*
X192527958Y-134065509D02*
X192604148Y-134065509D01*
X192604148Y-134065509D02*
X192680339Y-134103604D01*
X192680339Y-134103604D02*
X192718434Y-134141699D01*
X192718434Y-134141699D02*
X192756529Y-134217890D01*
X192756529Y-134217890D02*
X192794624Y-134370271D01*
X192794624Y-134370271D02*
X192794624Y-134560747D01*
X192794624Y-134560747D02*
X192756529Y-134713128D01*
X192756529Y-134713128D02*
X192718434Y-134789318D01*
X192718434Y-134789318D02*
X192680339Y-134827414D01*
X192680339Y-134827414D02*
X192604148Y-134865509D01*
X192604148Y-134865509D02*
X192527958Y-134865509D01*
X192527958Y-134865509D02*
X192451767Y-134827414D01*
X192451767Y-134827414D02*
X192413672Y-134789318D01*
X192413672Y-134789318D02*
X192375577Y-134713128D01*
X192375577Y-134713128D02*
X192337481Y-134560747D01*
X192337481Y-134560747D02*
X192337481Y-134370271D01*
X192337481Y-134370271D02*
X192375577Y-134217890D01*
X192375577Y-134217890D02*
X192413672Y-134141699D01*
X192413672Y-134141699D02*
X192451767Y-134103604D01*
X192451767Y-134103604D02*
X192527958Y-134065509D01*
X190813668Y-142485519D02*
X190813668Y-141685519D01*
X190813668Y-141685519D02*
X191118430Y-141685519D01*
X191118430Y-141685519D02*
X191194620Y-141723614D01*
X191194620Y-141723614D02*
X191232715Y-141761709D01*
X191232715Y-141761709D02*
X191270811Y-141837900D01*
X191270811Y-141837900D02*
X191270811Y-141952185D01*
X191270811Y-141952185D02*
X191232715Y-142028376D01*
X191232715Y-142028376D02*
X191194620Y-142066471D01*
X191194620Y-142066471D02*
X191118430Y-142104566D01*
X191118430Y-142104566D02*
X190813668Y-142104566D01*
X191766049Y-141685519D02*
X191842239Y-141685519D01*
X191842239Y-141685519D02*
X191918430Y-141723614D01*
X191918430Y-141723614D02*
X191956525Y-141761709D01*
X191956525Y-141761709D02*
X191994620Y-141837900D01*
X191994620Y-141837900D02*
X192032715Y-141990281D01*
X192032715Y-141990281D02*
X192032715Y-142180757D01*
X192032715Y-142180757D02*
X191994620Y-142333138D01*
X191994620Y-142333138D02*
X191956525Y-142409328D01*
X191956525Y-142409328D02*
X191918430Y-142447424D01*
X191918430Y-142447424D02*
X191842239Y-142485519D01*
X191842239Y-142485519D02*
X191766049Y-142485519D01*
X191766049Y-142485519D02*
X191689858Y-142447424D01*
X191689858Y-142447424D02*
X191651763Y-142409328D01*
X191651763Y-142409328D02*
X191613668Y-142333138D01*
X191613668Y-142333138D02*
X191575572Y-142180757D01*
X191575572Y-142180757D02*
X191575572Y-141990281D01*
X191575572Y-141990281D02*
X191613668Y-141837900D01*
X191613668Y-141837900D02*
X191651763Y-141761709D01*
X191651763Y-141761709D02*
X191689858Y-141723614D01*
X191689858Y-141723614D02*
X191766049Y-141685519D01*
X192337477Y-141761709D02*
X192375573Y-141723614D01*
X192375573Y-141723614D02*
X192451763Y-141685519D01*
X192451763Y-141685519D02*
X192642239Y-141685519D01*
X192642239Y-141685519D02*
X192718430Y-141723614D01*
X192718430Y-141723614D02*
X192756525Y-141761709D01*
X192756525Y-141761709D02*
X192794620Y-141837900D01*
X192794620Y-141837900D02*
X192794620Y-141914090D01*
X192794620Y-141914090D02*
X192756525Y-142028376D01*
X192756525Y-142028376D02*
X192299382Y-142485519D01*
X192299382Y-142485519D02*
X192794620Y-142485519D01*
X190813668Y-152645516D02*
X190813668Y-151845516D01*
X190813668Y-151845516D02*
X191118430Y-151845516D01*
X191118430Y-151845516D02*
X191194620Y-151883611D01*
X191194620Y-151883611D02*
X191232715Y-151921706D01*
X191232715Y-151921706D02*
X191270811Y-151997897D01*
X191270811Y-151997897D02*
X191270811Y-152112182D01*
X191270811Y-152112182D02*
X191232715Y-152188373D01*
X191232715Y-152188373D02*
X191194620Y-152226468D01*
X191194620Y-152226468D02*
X191118430Y-152264563D01*
X191118430Y-152264563D02*
X190813668Y-152264563D01*
X191766049Y-151845516D02*
X191842239Y-151845516D01*
X191842239Y-151845516D02*
X191918430Y-151883611D01*
X191918430Y-151883611D02*
X191956525Y-151921706D01*
X191956525Y-151921706D02*
X191994620Y-151997897D01*
X191994620Y-151997897D02*
X192032715Y-152150278D01*
X192032715Y-152150278D02*
X192032715Y-152340754D01*
X192032715Y-152340754D02*
X191994620Y-152493135D01*
X191994620Y-152493135D02*
X191956525Y-152569325D01*
X191956525Y-152569325D02*
X191918430Y-152607421D01*
X191918430Y-152607421D02*
X191842239Y-152645516D01*
X191842239Y-152645516D02*
X191766049Y-152645516D01*
X191766049Y-152645516D02*
X191689858Y-152607421D01*
X191689858Y-152607421D02*
X191651763Y-152569325D01*
X191651763Y-152569325D02*
X191613668Y-152493135D01*
X191613668Y-152493135D02*
X191575572Y-152340754D01*
X191575572Y-152340754D02*
X191575572Y-152150278D01*
X191575572Y-152150278D02*
X191613668Y-151997897D01*
X191613668Y-151997897D02*
X191651763Y-151921706D01*
X191651763Y-151921706D02*
X191689858Y-151883611D01*
X191689858Y-151883611D02*
X191766049Y-151845516D01*
X192718430Y-151845516D02*
X192566049Y-151845516D01*
X192566049Y-151845516D02*
X192489858Y-151883611D01*
X192489858Y-151883611D02*
X192451763Y-151921706D01*
X192451763Y-151921706D02*
X192375573Y-152035992D01*
X192375573Y-152035992D02*
X192337477Y-152188373D01*
X192337477Y-152188373D02*
X192337477Y-152493135D01*
X192337477Y-152493135D02*
X192375573Y-152569325D01*
X192375573Y-152569325D02*
X192413668Y-152607421D01*
X192413668Y-152607421D02*
X192489858Y-152645516D01*
X192489858Y-152645516D02*
X192642239Y-152645516D01*
X192642239Y-152645516D02*
X192718430Y-152607421D01*
X192718430Y-152607421D02*
X192756525Y-152569325D01*
X192756525Y-152569325D02*
X192794620Y-152493135D01*
X192794620Y-152493135D02*
X192794620Y-152302659D01*
X192794620Y-152302659D02*
X192756525Y-152226468D01*
X192756525Y-152226468D02*
X192718430Y-152188373D01*
X192718430Y-152188373D02*
X192642239Y-152150278D01*
X192642239Y-152150278D02*
X192489858Y-152150278D01*
X192489858Y-152150278D02*
X192413668Y-152188373D01*
X192413668Y-152188373D02*
X192375573Y-152226468D01*
X192375573Y-152226468D02*
X192337477Y-152302659D01*
X181747000Y-137405516D02*
X181480333Y-137024563D01*
X181289857Y-137405516D02*
X181289857Y-136605516D01*
X181289857Y-136605516D02*
X181594619Y-136605516D01*
X181594619Y-136605516D02*
X181670809Y-136643611D01*
X181670809Y-136643611D02*
X181708904Y-136681706D01*
X181708904Y-136681706D02*
X181747000Y-136757897D01*
X181747000Y-136757897D02*
X181747000Y-136872182D01*
X181747000Y-136872182D02*
X181708904Y-136948373D01*
X181708904Y-136948373D02*
X181670809Y-136986468D01*
X181670809Y-136986468D02*
X181594619Y-137024563D01*
X181594619Y-137024563D02*
X181289857Y-137024563D01*
X182051761Y-137367421D02*
X182166047Y-137405516D01*
X182166047Y-137405516D02*
X182356523Y-137405516D01*
X182356523Y-137405516D02*
X182432714Y-137367421D01*
X182432714Y-137367421D02*
X182470809Y-137329325D01*
X182470809Y-137329325D02*
X182508904Y-137253135D01*
X182508904Y-137253135D02*
X182508904Y-137176944D01*
X182508904Y-137176944D02*
X182470809Y-137100754D01*
X182470809Y-137100754D02*
X182432714Y-137062659D01*
X182432714Y-137062659D02*
X182356523Y-137024563D01*
X182356523Y-137024563D02*
X182204142Y-136986468D01*
X182204142Y-136986468D02*
X182127952Y-136948373D01*
X182127952Y-136948373D02*
X182089857Y-136910278D01*
X182089857Y-136910278D02*
X182051761Y-136834087D01*
X182051761Y-136834087D02*
X182051761Y-136757897D01*
X182051761Y-136757897D02*
X182089857Y-136681706D01*
X182089857Y-136681706D02*
X182127952Y-136643611D01*
X182127952Y-136643611D02*
X182204142Y-136605516D01*
X182204142Y-136605516D02*
X182394619Y-136605516D01*
X182394619Y-136605516D02*
X182508904Y-136643611D01*
X182737476Y-136605516D02*
X183194619Y-136605516D01*
X182966047Y-137405516D02*
X182966047Y-136605516D01*
X190813663Y-150105512D02*
X190813663Y-149305512D01*
X190813663Y-149305512D02*
X191118425Y-149305512D01*
X191118425Y-149305512D02*
X191194615Y-149343607D01*
X191194615Y-149343607D02*
X191232710Y-149381702D01*
X191232710Y-149381702D02*
X191270806Y-149457893D01*
X191270806Y-149457893D02*
X191270806Y-149572178D01*
X191270806Y-149572178D02*
X191232710Y-149648369D01*
X191232710Y-149648369D02*
X191194615Y-149686464D01*
X191194615Y-149686464D02*
X191118425Y-149724559D01*
X191118425Y-149724559D02*
X190813663Y-149724559D01*
X191766044Y-149305512D02*
X191842234Y-149305512D01*
X191842234Y-149305512D02*
X191918425Y-149343607D01*
X191918425Y-149343607D02*
X191956520Y-149381702D01*
X191956520Y-149381702D02*
X191994615Y-149457893D01*
X191994615Y-149457893D02*
X192032710Y-149610274D01*
X192032710Y-149610274D02*
X192032710Y-149800750D01*
X192032710Y-149800750D02*
X191994615Y-149953131D01*
X191994615Y-149953131D02*
X191956520Y-150029321D01*
X191956520Y-150029321D02*
X191918425Y-150067417D01*
X191918425Y-150067417D02*
X191842234Y-150105512D01*
X191842234Y-150105512D02*
X191766044Y-150105512D01*
X191766044Y-150105512D02*
X191689853Y-150067417D01*
X191689853Y-150067417D02*
X191651758Y-150029321D01*
X191651758Y-150029321D02*
X191613663Y-149953131D01*
X191613663Y-149953131D02*
X191575567Y-149800750D01*
X191575567Y-149800750D02*
X191575567Y-149610274D01*
X191575567Y-149610274D02*
X191613663Y-149457893D01*
X191613663Y-149457893D02*
X191651758Y-149381702D01*
X191651758Y-149381702D02*
X191689853Y-149343607D01*
X191689853Y-149343607D02*
X191766044Y-149305512D01*
X192756520Y-149305512D02*
X192375568Y-149305512D01*
X192375568Y-149305512D02*
X192337472Y-149686464D01*
X192337472Y-149686464D02*
X192375568Y-149648369D01*
X192375568Y-149648369D02*
X192451758Y-149610274D01*
X192451758Y-149610274D02*
X192642234Y-149610274D01*
X192642234Y-149610274D02*
X192718425Y-149648369D01*
X192718425Y-149648369D02*
X192756520Y-149686464D01*
X192756520Y-149686464D02*
X192794615Y-149762655D01*
X192794615Y-149762655D02*
X192794615Y-149953131D01*
X192794615Y-149953131D02*
X192756520Y-150029321D01*
X192756520Y-150029321D02*
X192718425Y-150067417D01*
X192718425Y-150067417D02*
X192642234Y-150105512D01*
X192642234Y-150105512D02*
X192451758Y-150105512D01*
X192451758Y-150105512D02*
X192375568Y-150067417D01*
X192375568Y-150067417D02*
X192337472Y-150029321D01*
X181213665Y-145025516D02*
X181213665Y-144225516D01*
X181213665Y-144225516D02*
X181518427Y-144225516D01*
X181518427Y-144225516D02*
X181594617Y-144263611D01*
X181594617Y-144263611D02*
X181632712Y-144301706D01*
X181632712Y-144301706D02*
X181670808Y-144377897D01*
X181670808Y-144377897D02*
X181670808Y-144492182D01*
X181670808Y-144492182D02*
X181632712Y-144568373D01*
X181632712Y-144568373D02*
X181594617Y-144606468D01*
X181594617Y-144606468D02*
X181518427Y-144644563D01*
X181518427Y-144644563D02*
X181213665Y-144644563D01*
X181975569Y-144301706D02*
X182013665Y-144263611D01*
X182013665Y-144263611D02*
X182089855Y-144225516D01*
X182089855Y-144225516D02*
X182280331Y-144225516D01*
X182280331Y-144225516D02*
X182356522Y-144263611D01*
X182356522Y-144263611D02*
X182394617Y-144301706D01*
X182394617Y-144301706D02*
X182432712Y-144377897D01*
X182432712Y-144377897D02*
X182432712Y-144454087D01*
X182432712Y-144454087D02*
X182394617Y-144568373D01*
X182394617Y-144568373D02*
X181937474Y-145025516D01*
X181937474Y-145025516D02*
X182432712Y-145025516D01*
X182927951Y-144225516D02*
X183004141Y-144225516D01*
X183004141Y-144225516D02*
X183080332Y-144263611D01*
X183080332Y-144263611D02*
X183118427Y-144301706D01*
X183118427Y-144301706D02*
X183156522Y-144377897D01*
X183156522Y-144377897D02*
X183194617Y-144530278D01*
X183194617Y-144530278D02*
X183194617Y-144720754D01*
X183194617Y-144720754D02*
X183156522Y-144873135D01*
X183156522Y-144873135D02*
X183118427Y-144949325D01*
X183118427Y-144949325D02*
X183080332Y-144987421D01*
X183080332Y-144987421D02*
X183004141Y-145025516D01*
X183004141Y-145025516D02*
X182927951Y-145025516D01*
X182927951Y-145025516D02*
X182851760Y-144987421D01*
X182851760Y-144987421D02*
X182813665Y-144949325D01*
X182813665Y-144949325D02*
X182775570Y-144873135D01*
X182775570Y-144873135D02*
X182737474Y-144720754D01*
X182737474Y-144720754D02*
X182737474Y-144530278D01*
X182737474Y-144530278D02*
X182775570Y-144377897D01*
X182775570Y-144377897D02*
X182813665Y-144301706D01*
X182813665Y-144301706D02*
X182851760Y-144263611D01*
X182851760Y-144263611D02*
X182927951Y-144225516D01*
X181213662Y-157725519D02*
X181213662Y-156925519D01*
X181213662Y-156925519D02*
X181518424Y-156925519D01*
X181518424Y-156925519D02*
X181594614Y-156963614D01*
X181594614Y-156963614D02*
X181632709Y-157001709D01*
X181632709Y-157001709D02*
X181670805Y-157077900D01*
X181670805Y-157077900D02*
X181670805Y-157192185D01*
X181670805Y-157192185D02*
X181632709Y-157268376D01*
X181632709Y-157268376D02*
X181594614Y-157306471D01*
X181594614Y-157306471D02*
X181518424Y-157344566D01*
X181518424Y-157344566D02*
X181213662Y-157344566D01*
X182432709Y-157725519D02*
X181975566Y-157725519D01*
X182204138Y-157725519D02*
X182204138Y-156925519D01*
X182204138Y-156925519D02*
X182127947Y-157039804D01*
X182127947Y-157039804D02*
X182051757Y-157115995D01*
X182051757Y-157115995D02*
X181975566Y-157154090D01*
X183118424Y-156925519D02*
X182966043Y-156925519D01*
X182966043Y-156925519D02*
X182889852Y-156963614D01*
X182889852Y-156963614D02*
X182851757Y-157001709D01*
X182851757Y-157001709D02*
X182775567Y-157115995D01*
X182775567Y-157115995D02*
X182737471Y-157268376D01*
X182737471Y-157268376D02*
X182737471Y-157573138D01*
X182737471Y-157573138D02*
X182775567Y-157649328D01*
X182775567Y-157649328D02*
X182813662Y-157687424D01*
X182813662Y-157687424D02*
X182889852Y-157725519D01*
X182889852Y-157725519D02*
X183042233Y-157725519D01*
X183042233Y-157725519D02*
X183118424Y-157687424D01*
X183118424Y-157687424D02*
X183156519Y-157649328D01*
X183156519Y-157649328D02*
X183194614Y-157573138D01*
X183194614Y-157573138D02*
X183194614Y-157382662D01*
X183194614Y-157382662D02*
X183156519Y-157306471D01*
X183156519Y-157306471D02*
X183118424Y-157268376D01*
X183118424Y-157268376D02*
X183042233Y-157230281D01*
X183042233Y-157230281D02*
X182889852Y-157230281D01*
X182889852Y-157230281D02*
X182813662Y-157268376D01*
X182813662Y-157268376D02*
X182775567Y-157306471D01*
X182775567Y-157306471D02*
X182737471Y-157382662D01*
X191175574Y-139183611D02*
X191099384Y-139145516D01*
X191099384Y-139145516D02*
X190985098Y-139145516D01*
X190985098Y-139145516D02*
X190870812Y-139183611D01*
X190870812Y-139183611D02*
X190794622Y-139259801D01*
X190794622Y-139259801D02*
X190756527Y-139335992D01*
X190756527Y-139335992D02*
X190718431Y-139488373D01*
X190718431Y-139488373D02*
X190718431Y-139602659D01*
X190718431Y-139602659D02*
X190756527Y-139755040D01*
X190756527Y-139755040D02*
X190794622Y-139831230D01*
X190794622Y-139831230D02*
X190870812Y-139907421D01*
X190870812Y-139907421D02*
X190985098Y-139945516D01*
X190985098Y-139945516D02*
X191061289Y-139945516D01*
X191061289Y-139945516D02*
X191175574Y-139907421D01*
X191175574Y-139907421D02*
X191213670Y-139869325D01*
X191213670Y-139869325D02*
X191213670Y-139602659D01*
X191213670Y-139602659D02*
X191061289Y-139602659D01*
X191556527Y-139945516D02*
X191556527Y-139145516D01*
X191556527Y-139145516D02*
X192013670Y-139945516D01*
X192013670Y-139945516D02*
X192013670Y-139145516D01*
X192394622Y-139945516D02*
X192394622Y-139145516D01*
X192394622Y-139145516D02*
X192585098Y-139145516D01*
X192585098Y-139145516D02*
X192699384Y-139183611D01*
X192699384Y-139183611D02*
X192775574Y-139259801D01*
X192775574Y-139259801D02*
X192813669Y-139335992D01*
X192813669Y-139335992D02*
X192851765Y-139488373D01*
X192851765Y-139488373D02*
X192851765Y-139602659D01*
X192851765Y-139602659D02*
X192813669Y-139755040D01*
X192813669Y-139755040D02*
X192775574Y-139831230D01*
X192775574Y-139831230D02*
X192699384Y-139907421D01*
X192699384Y-139907421D02*
X192585098Y-139945516D01*
X192585098Y-139945516D02*
X192394622Y-139945516D01*
X181213666Y-150105509D02*
X181213666Y-149305509D01*
X181213666Y-149305509D02*
X181518428Y-149305509D01*
X181518428Y-149305509D02*
X181594618Y-149343604D01*
X181594618Y-149343604D02*
X181632713Y-149381699D01*
X181632713Y-149381699D02*
X181670809Y-149457890D01*
X181670809Y-149457890D02*
X181670809Y-149572175D01*
X181670809Y-149572175D02*
X181632713Y-149648366D01*
X181632713Y-149648366D02*
X181594618Y-149686461D01*
X181594618Y-149686461D02*
X181518428Y-149724556D01*
X181518428Y-149724556D02*
X181213666Y-149724556D01*
X182432713Y-150105509D02*
X181975570Y-150105509D01*
X182204142Y-150105509D02*
X182204142Y-149305509D01*
X182204142Y-149305509D02*
X182127951Y-149419794D01*
X182127951Y-149419794D02*
X182051761Y-149495985D01*
X182051761Y-149495985D02*
X181975570Y-149534080D01*
X182889856Y-149648366D02*
X182813666Y-149610271D01*
X182813666Y-149610271D02*
X182775571Y-149572175D01*
X182775571Y-149572175D02*
X182737475Y-149495985D01*
X182737475Y-149495985D02*
X182737475Y-149457890D01*
X182737475Y-149457890D02*
X182775571Y-149381699D01*
X182775571Y-149381699D02*
X182813666Y-149343604D01*
X182813666Y-149343604D02*
X182889856Y-149305509D01*
X182889856Y-149305509D02*
X183042237Y-149305509D01*
X183042237Y-149305509D02*
X183118428Y-149343604D01*
X183118428Y-149343604D02*
X183156523Y-149381699D01*
X183156523Y-149381699D02*
X183194618Y-149457890D01*
X183194618Y-149457890D02*
X183194618Y-149495985D01*
X183194618Y-149495985D02*
X183156523Y-149572175D01*
X183156523Y-149572175D02*
X183118428Y-149610271D01*
X183118428Y-149610271D02*
X183042237Y-149648366D01*
X183042237Y-149648366D02*
X182889856Y-149648366D01*
X182889856Y-149648366D02*
X182813666Y-149686461D01*
X182813666Y-149686461D02*
X182775571Y-149724556D01*
X182775571Y-149724556D02*
X182737475Y-149800747D01*
X182737475Y-149800747D02*
X182737475Y-149953128D01*
X182737475Y-149953128D02*
X182775571Y-150029318D01*
X182775571Y-150029318D02*
X182813666Y-150067414D01*
X182813666Y-150067414D02*
X182889856Y-150105509D01*
X182889856Y-150105509D02*
X183042237Y-150105509D01*
X183042237Y-150105509D02*
X183118428Y-150067414D01*
X183118428Y-150067414D02*
X183156523Y-150029318D01*
X183156523Y-150029318D02*
X183194618Y-149953128D01*
X183194618Y-149953128D02*
X183194618Y-149800747D01*
X183194618Y-149800747D02*
X183156523Y-149724556D01*
X183156523Y-149724556D02*
X183118428Y-149686461D01*
X183118428Y-149686461D02*
X183042237Y-149648366D01*
X181118428Y-139145512D02*
X181385095Y-139945512D01*
X181385095Y-139945512D02*
X181651761Y-139145512D01*
X182375571Y-139869321D02*
X182337475Y-139907417D01*
X182337475Y-139907417D02*
X182223190Y-139945512D01*
X182223190Y-139945512D02*
X182146999Y-139945512D01*
X182146999Y-139945512D02*
X182032713Y-139907417D01*
X182032713Y-139907417D02*
X181956523Y-139831226D01*
X181956523Y-139831226D02*
X181918428Y-139755036D01*
X181918428Y-139755036D02*
X181880332Y-139602655D01*
X181880332Y-139602655D02*
X181880332Y-139488369D01*
X181880332Y-139488369D02*
X181918428Y-139335988D01*
X181918428Y-139335988D02*
X181956523Y-139259797D01*
X181956523Y-139259797D02*
X182032713Y-139183607D01*
X182032713Y-139183607D02*
X182146999Y-139145512D01*
X182146999Y-139145512D02*
X182223190Y-139145512D01*
X182223190Y-139145512D02*
X182337475Y-139183607D01*
X182337475Y-139183607D02*
X182375571Y-139221702D01*
X183175571Y-139869321D02*
X183137475Y-139907417D01*
X183137475Y-139907417D02*
X183023190Y-139945512D01*
X183023190Y-139945512D02*
X182946999Y-139945512D01*
X182946999Y-139945512D02*
X182832713Y-139907417D01*
X182832713Y-139907417D02*
X182756523Y-139831226D01*
X182756523Y-139831226D02*
X182718428Y-139755036D01*
X182718428Y-139755036D02*
X182680332Y-139602655D01*
X182680332Y-139602655D02*
X182680332Y-139488369D01*
X182680332Y-139488369D02*
X182718428Y-139335988D01*
X182718428Y-139335988D02*
X182756523Y-139259797D01*
X182756523Y-139259797D02*
X182832713Y-139183607D01*
X182832713Y-139183607D02*
X182946999Y-139145512D01*
X182946999Y-139145512D02*
X183023190Y-139145512D01*
X183023190Y-139145512D02*
X183137475Y-139183607D01*
X183137475Y-139183607D02*
X183175571Y-139221702D01*
X181213665Y-152645512D02*
X181213665Y-151845512D01*
X181213665Y-151845512D02*
X181518427Y-151845512D01*
X181518427Y-151845512D02*
X181594617Y-151883607D01*
X181594617Y-151883607D02*
X181632712Y-151921702D01*
X181632712Y-151921702D02*
X181670808Y-151997893D01*
X181670808Y-151997893D02*
X181670808Y-152112178D01*
X181670808Y-152112178D02*
X181632712Y-152188369D01*
X181632712Y-152188369D02*
X181594617Y-152226464D01*
X181594617Y-152226464D02*
X181518427Y-152264559D01*
X181518427Y-152264559D02*
X181213665Y-152264559D01*
X182432712Y-152645512D02*
X181975569Y-152645512D01*
X182204141Y-152645512D02*
X182204141Y-151845512D01*
X182204141Y-151845512D02*
X182127950Y-151959797D01*
X182127950Y-151959797D02*
X182051760Y-152035988D01*
X182051760Y-152035988D02*
X181975569Y-152074083D01*
X183156522Y-151845512D02*
X182775570Y-151845512D01*
X182775570Y-151845512D02*
X182737474Y-152226464D01*
X182737474Y-152226464D02*
X182775570Y-152188369D01*
X182775570Y-152188369D02*
X182851760Y-152150274D01*
X182851760Y-152150274D02*
X183042236Y-152150274D01*
X183042236Y-152150274D02*
X183118427Y-152188369D01*
X183118427Y-152188369D02*
X183156522Y-152226464D01*
X183156522Y-152226464D02*
X183194617Y-152302655D01*
X183194617Y-152302655D02*
X183194617Y-152493131D01*
X183194617Y-152493131D02*
X183156522Y-152569321D01*
X183156522Y-152569321D02*
X183118427Y-152607417D01*
X183118427Y-152607417D02*
X183042236Y-152645512D01*
X183042236Y-152645512D02*
X182851760Y-152645512D01*
X182851760Y-152645512D02*
X182775570Y-152607417D01*
X182775570Y-152607417D02*
X182737474Y-152569321D01*
X181213669Y-155185512D02*
X181213669Y-154385512D01*
X181213669Y-154385512D02*
X181518431Y-154385512D01*
X181518431Y-154385512D02*
X181594621Y-154423607D01*
X181594621Y-154423607D02*
X181632716Y-154461702D01*
X181632716Y-154461702D02*
X181670812Y-154537893D01*
X181670812Y-154537893D02*
X181670812Y-154652178D01*
X181670812Y-154652178D02*
X181632716Y-154728369D01*
X181632716Y-154728369D02*
X181594621Y-154766464D01*
X181594621Y-154766464D02*
X181518431Y-154804559D01*
X181518431Y-154804559D02*
X181213669Y-154804559D01*
X182432716Y-155185512D02*
X181975573Y-155185512D01*
X182204145Y-155185512D02*
X182204145Y-154385512D01*
X182204145Y-154385512D02*
X182127954Y-154499797D01*
X182127954Y-154499797D02*
X182051764Y-154575988D01*
X182051764Y-154575988D02*
X181975573Y-154614083D01*
X183118431Y-154652178D02*
X183118431Y-155185512D01*
X182927955Y-154347417D02*
X182737478Y-154918845D01*
X182737478Y-154918845D02*
X183232717Y-154918845D01*
X190813670Y-132325510D02*
X190813670Y-131525510D01*
X190813670Y-131525510D02*
X191118432Y-131525510D01*
X191118432Y-131525510D02*
X191194622Y-131563605D01*
X191194622Y-131563605D02*
X191232717Y-131601700D01*
X191232717Y-131601700D02*
X191270813Y-131677891D01*
X191270813Y-131677891D02*
X191270813Y-131792176D01*
X191270813Y-131792176D02*
X191232717Y-131868367D01*
X191232717Y-131868367D02*
X191194622Y-131906462D01*
X191194622Y-131906462D02*
X191118432Y-131944557D01*
X191118432Y-131944557D02*
X190813670Y-131944557D01*
X191766051Y-131525510D02*
X191842241Y-131525510D01*
X191842241Y-131525510D02*
X191918432Y-131563605D01*
X191918432Y-131563605D02*
X191956527Y-131601700D01*
X191956527Y-131601700D02*
X191994622Y-131677891D01*
X191994622Y-131677891D02*
X192032717Y-131830272D01*
X192032717Y-131830272D02*
X192032717Y-132020748D01*
X192032717Y-132020748D02*
X191994622Y-132173129D01*
X191994622Y-132173129D02*
X191956527Y-132249319D01*
X191956527Y-132249319D02*
X191918432Y-132287415D01*
X191918432Y-132287415D02*
X191842241Y-132325510D01*
X191842241Y-132325510D02*
X191766051Y-132325510D01*
X191766051Y-132325510D02*
X191689860Y-132287415D01*
X191689860Y-132287415D02*
X191651765Y-132249319D01*
X191651765Y-132249319D02*
X191613670Y-132173129D01*
X191613670Y-132173129D02*
X191575574Y-132020748D01*
X191575574Y-132020748D02*
X191575574Y-131830272D01*
X191575574Y-131830272D02*
X191613670Y-131677891D01*
X191613670Y-131677891D02*
X191651765Y-131601700D01*
X191651765Y-131601700D02*
X191689860Y-131563605D01*
X191689860Y-131563605D02*
X191766051Y-131525510D01*
X192794622Y-132325510D02*
X192337479Y-132325510D01*
X192566051Y-132325510D02*
X192566051Y-131525510D01*
X192566051Y-131525510D02*
X192489860Y-131639795D01*
X192489860Y-131639795D02*
X192413670Y-131715986D01*
X192413670Y-131715986D02*
X192337479Y-131754081D01*
X190813669Y-147565512D02*
X190813669Y-146765512D01*
X190813669Y-146765512D02*
X191118431Y-146765512D01*
X191118431Y-146765512D02*
X191194621Y-146803607D01*
X191194621Y-146803607D02*
X191232716Y-146841702D01*
X191232716Y-146841702D02*
X191270812Y-146917893D01*
X191270812Y-146917893D02*
X191270812Y-147032178D01*
X191270812Y-147032178D02*
X191232716Y-147108369D01*
X191232716Y-147108369D02*
X191194621Y-147146464D01*
X191194621Y-147146464D02*
X191118431Y-147184559D01*
X191118431Y-147184559D02*
X190813669Y-147184559D01*
X191766050Y-146765512D02*
X191842240Y-146765512D01*
X191842240Y-146765512D02*
X191918431Y-146803607D01*
X191918431Y-146803607D02*
X191956526Y-146841702D01*
X191956526Y-146841702D02*
X191994621Y-146917893D01*
X191994621Y-146917893D02*
X192032716Y-147070274D01*
X192032716Y-147070274D02*
X192032716Y-147260750D01*
X192032716Y-147260750D02*
X191994621Y-147413131D01*
X191994621Y-147413131D02*
X191956526Y-147489321D01*
X191956526Y-147489321D02*
X191918431Y-147527417D01*
X191918431Y-147527417D02*
X191842240Y-147565512D01*
X191842240Y-147565512D02*
X191766050Y-147565512D01*
X191766050Y-147565512D02*
X191689859Y-147527417D01*
X191689859Y-147527417D02*
X191651764Y-147489321D01*
X191651764Y-147489321D02*
X191613669Y-147413131D01*
X191613669Y-147413131D02*
X191575573Y-147260750D01*
X191575573Y-147260750D02*
X191575573Y-147070274D01*
X191575573Y-147070274D02*
X191613669Y-146917893D01*
X191613669Y-146917893D02*
X191651764Y-146841702D01*
X191651764Y-146841702D02*
X191689859Y-146803607D01*
X191689859Y-146803607D02*
X191766050Y-146765512D01*
X192718431Y-147032178D02*
X192718431Y-147565512D01*
X192527955Y-146727417D02*
X192337478Y-147298845D01*
X192337478Y-147298845D02*
X192832717Y-147298845D01*
%TO.C,B1*%
X189735095Y-169127181D02*
X189735101Y-171627179D01*
X188235098Y-167627174D02*
X189735095Y-169127181D01*
X188235098Y-167627174D02*
X185735100Y-167627180D01*
X188235094Y-173127176D02*
X189735101Y-171627179D01*
X188235094Y-173127176D02*
X185735096Y-173127182D01*
X185735100Y-167627180D02*
X184235093Y-169127177D01*
X185735096Y-173127182D02*
X184235099Y-171627175D01*
X184235093Y-169127177D02*
X184235099Y-171627175D01*
D11*
%TO.C,D31*%
X304123014Y-122489480D02*
X303422383Y-122318816D01*
X303986204Y-122113601D02*
X304456048Y-121942587D01*
X303849393Y-121737727D02*
X304123014Y-122489480D01*
X303422383Y-122318816D02*
X303849393Y-121737727D01*
X303422383Y-122318816D02*
X303610501Y-122835641D01*
X303422383Y-122318816D02*
X303234271Y-121801980D01*
X303046512Y-122455625D02*
X303422383Y-122318816D01*
%TO.C,D49*%
X240569384Y-158391247D02*
X239868753Y-158220583D01*
X240432574Y-158015368D02*
X240902418Y-157844354D01*
X240295763Y-157639494D02*
X240569384Y-158391247D01*
X239868753Y-158220583D02*
X240295763Y-157639494D01*
X239868753Y-158220583D02*
X240056871Y-158737408D01*
X239868753Y-158220583D02*
X239680641Y-157703747D01*
X239492882Y-158357392D02*
X239868753Y-158220583D01*
%TO.C,D5*%
X81690780Y-144039877D02*
X81417160Y-144791625D01*
X81553969Y-144415753D02*
X82023818Y-144586757D01*
X81417160Y-144791625D02*
X80990155Y-144210534D01*
X80990155Y-144210534D02*
X81690780Y-144039877D01*
X80990155Y-144210534D02*
X81178270Y-143693709D01*
X80990155Y-144210534D02*
X80802040Y-144727371D01*
X80614272Y-144073731D02*
X80990155Y-144210534D01*
%TO.C,D1*%
X64776321Y-137883512D02*
X64502701Y-138635260D01*
X64639510Y-138259388D02*
X65109359Y-138430392D01*
X64502701Y-138635260D02*
X64075696Y-138054169D01*
X64075696Y-138054169D02*
X64776321Y-137883512D01*
X64075696Y-138054169D02*
X64263811Y-137537344D01*
X64075696Y-138054169D02*
X63887581Y-138571006D01*
X63699813Y-137917366D02*
X64075696Y-138054169D01*
%TO.C,D16*%
X123899212Y-133330124D02*
X123625592Y-134081872D01*
X123762401Y-133706000D02*
X124232250Y-133877004D01*
X123625592Y-134081872D02*
X123198587Y-133500781D01*
X123198587Y-133500781D02*
X123899212Y-133330124D01*
X123198587Y-133500781D02*
X123386702Y-132983956D01*
X123198587Y-133500781D02*
X123010472Y-134017618D01*
X122822704Y-133363978D02*
X123198587Y-133500781D01*
%TO.C,D32*%
X298308656Y-106514706D02*
X297608025Y-106344042D01*
X298171846Y-106138827D02*
X298641690Y-105967813D01*
X298035035Y-105762953D02*
X298308656Y-106514706D01*
X297608025Y-106344042D02*
X298035035Y-105762953D01*
X297608025Y-106344042D02*
X297796143Y-106860867D01*
X297608025Y-106344042D02*
X297419913Y-105827206D01*
X297232154Y-106480851D02*
X297608025Y-106344042D01*
%TO.C,D38*%
X280212646Y-162053292D02*
X279512015Y-161882628D01*
X280075836Y-161677413D02*
X280545680Y-161506399D01*
X279939025Y-161301539D02*
X280212646Y-162053292D01*
X279512015Y-161882628D02*
X279939025Y-161301539D01*
X279512015Y-161882628D02*
X279700133Y-162399453D01*
X279512015Y-161882628D02*
X279323903Y-161365792D01*
X279136144Y-162019437D02*
X279512015Y-161882628D01*
%TO.C,D26*%
X161832394Y-134366541D02*
X161558774Y-135118289D01*
X161695583Y-134742417D02*
X162165432Y-134913421D01*
X161558774Y-135118289D02*
X161131769Y-134537198D01*
X161131769Y-134537198D02*
X161832394Y-134366541D01*
X161131769Y-134537198D02*
X161319884Y-134020373D01*
X161131769Y-134537198D02*
X160943654Y-135054035D01*
X160755886Y-134400395D02*
X161131769Y-134537198D01*
%TO.C,D17*%
X129713554Y-117355353D02*
X129439934Y-118107101D01*
X129576743Y-117731229D02*
X130046592Y-117902233D01*
X129439934Y-118107101D02*
X129012929Y-117526010D01*
X129012929Y-117526010D02*
X129713554Y-117355353D01*
X129012929Y-117526010D02*
X129201044Y-117009185D01*
X129012929Y-117526010D02*
X128824814Y-118042847D01*
X128637046Y-117389207D02*
X129012929Y-117526010D01*
%TO.C,D39*%
X274398321Y-146078517D02*
X273697690Y-145907853D01*
X274261511Y-145702638D02*
X274731355Y-145531624D01*
X274124700Y-145326764D02*
X274398321Y-146078517D01*
X273697690Y-145907853D02*
X274124700Y-145326764D01*
X273697690Y-145907853D02*
X273885808Y-146424678D01*
X273697690Y-145907853D02*
X273509578Y-145391017D01*
X273321819Y-146044662D02*
X273697690Y-145907853D01*
%TO.C,D27*%
X167646738Y-118391773D02*
X167373118Y-119143521D01*
X167509927Y-118767649D02*
X167979776Y-118938653D01*
X167373118Y-119143521D02*
X166946113Y-118562430D01*
X166946113Y-118562430D02*
X167646738Y-118391773D01*
X166946113Y-118562430D02*
X167134228Y-118045605D01*
X166946113Y-118562430D02*
X166757998Y-119079267D01*
X166570230Y-118425627D02*
X166946113Y-118562430D01*
%TO.C,D35*%
X287208532Y-128645836D02*
X286507901Y-128475172D01*
X287071722Y-128269957D02*
X287541566Y-128098943D01*
X286934911Y-127894083D02*
X287208532Y-128645836D01*
X286507901Y-128475172D02*
X286934911Y-127894083D01*
X286507901Y-128475172D02*
X286696019Y-128991997D01*
X286507901Y-128475172D02*
X286319789Y-127958336D01*
X286132030Y-128611981D02*
X286507901Y-128475172D01*
%TO.C,D46*%
X245000104Y-117936097D02*
X244299473Y-117765433D01*
X244863294Y-117560218D02*
X245333138Y-117389204D01*
X244726483Y-117184344D02*
X245000104Y-117936097D01*
X244299473Y-117765433D02*
X244726483Y-117184344D01*
X244299473Y-117765433D02*
X244487591Y-118282258D01*
X244299473Y-117765433D02*
X244111361Y-117248597D01*
X243923602Y-117902242D02*
X244299473Y-117765433D01*
%TO.C,D7*%
X93319469Y-112090321D02*
X93045849Y-112842069D01*
X93182658Y-112466197D02*
X93652507Y-112637201D01*
X93045849Y-112842069D02*
X92618844Y-112260978D01*
X92618844Y-112260978D02*
X93319469Y-112090321D01*
X92618844Y-112260978D02*
X92806959Y-111744153D01*
X92618844Y-112260978D02*
X92430729Y-112777815D01*
X92242961Y-112124175D02*
X92618844Y-112260978D01*
%TO.C,D21*%
X139958630Y-141835723D02*
X139685010Y-142587471D01*
X139821819Y-142211599D02*
X140291668Y-142382603D01*
X139685010Y-142587471D02*
X139258005Y-142006380D01*
X139258005Y-142006380D02*
X139958630Y-141835723D01*
X139258005Y-142006380D02*
X139446120Y-141489555D01*
X139258005Y-142006380D02*
X139069890Y-142523217D01*
X138882122Y-141869577D02*
X139258005Y-142006380D01*
%TO.C,D52*%
X223126342Y-110466906D02*
X222425711Y-110296242D01*
X222989532Y-110091027D02*
X223459376Y-109920013D01*
X222852721Y-109715153D02*
X223126342Y-110466906D01*
X222425711Y-110296242D02*
X222852721Y-109715153D01*
X222425711Y-110296242D02*
X222613829Y-110813067D01*
X222425711Y-110296242D02*
X222237599Y-109779406D01*
X222049840Y-110433051D02*
X222425711Y-110296242D01*
%TO.C,D22*%
X145772976Y-125860956D02*
X145499356Y-126612704D01*
X145636165Y-126236832D02*
X146106014Y-126407836D01*
X145499356Y-126612704D02*
X145072351Y-126031613D01*
X145072351Y-126031613D02*
X145772976Y-125860956D01*
X145072351Y-126031613D02*
X145260466Y-125514788D01*
X145072351Y-126031613D02*
X144884236Y-126548450D01*
X144696468Y-125894810D02*
X145072351Y-126031613D01*
%TO.C,D14*%
X112270532Y-165279683D02*
X111996912Y-166031431D01*
X112133721Y-165655559D02*
X112603570Y-165826563D01*
X111996912Y-166031431D02*
X111569907Y-165450340D01*
X111569907Y-165450340D02*
X112270532Y-165279683D01*
X111569907Y-165450340D02*
X111758022Y-164933515D01*
X111569907Y-165450340D02*
X111381792Y-165967177D01*
X111194024Y-165313537D02*
X111569907Y-165450340D01*
%TO.C,D58*%
X205532915Y-195337754D02*
X205018684Y-195950593D01*
X205275798Y-195644171D02*
X205658821Y-195965566D01*
X205018684Y-195950593D02*
X204816171Y-195258504D01*
X204816171Y-195258504D02*
X205532915Y-195337754D01*
X204816171Y-195258504D02*
X205169703Y-194837173D01*
X204816171Y-195258504D02*
X204462644Y-195679823D01*
X204509751Y-195001386D02*
X204816171Y-195258504D01*
%TO.C,D36*%
X281394190Y-112671065D02*
X280693559Y-112500401D01*
X281257380Y-112295186D02*
X281727224Y-112124172D01*
X281120569Y-111919312D02*
X281394190Y-112671065D01*
X280693559Y-112500401D02*
X281120569Y-111919312D01*
X280693559Y-112500401D02*
X280881677Y-113017226D01*
X280693559Y-112500401D02*
X280505447Y-111983565D01*
X280317688Y-112637210D02*
X280693559Y-112500401D01*
%TO.C,D50*%
X234755038Y-142416467D02*
X234054407Y-142245803D01*
X234618228Y-142040588D02*
X235088072Y-141869574D01*
X234481417Y-141664714D02*
X234755038Y-142416467D01*
X234054407Y-142245803D02*
X234481417Y-141664714D01*
X234054407Y-142245803D02*
X234242525Y-142762628D01*
X234054407Y-142245803D02*
X233866295Y-141728967D01*
X233678536Y-142382612D02*
X234054407Y-142245803D01*
%TO.C,D54*%
X218695616Y-150922052D02*
X217994985Y-150751388D01*
X218558806Y-150546173D02*
X219028650Y-150375159D01*
X218421995Y-150170299D02*
X218695616Y-150922052D01*
X217994985Y-150751388D02*
X218421995Y-150170299D01*
X217994985Y-150751388D02*
X218183103Y-151268213D01*
X217994985Y-150751388D02*
X217806873Y-150234552D01*
X217619114Y-150888197D02*
X217994985Y-150751388D01*
%TO.C,D42*%
X256955295Y-98154190D02*
X256254664Y-97983526D01*
X256818485Y-97778311D02*
X257288329Y-97607297D01*
X256681674Y-97402437D02*
X256955295Y-98154190D01*
X256254664Y-97983526D02*
X256681674Y-97402437D01*
X256254664Y-97983526D02*
X256442782Y-98500351D01*
X256254664Y-97983526D02*
X256066552Y-97466690D01*
X255878793Y-98120335D02*
X256254664Y-97983526D01*
%TO.C,D8*%
X99133813Y-96115560D02*
X98860193Y-96867308D01*
X98997002Y-96491436D02*
X99466851Y-96662440D01*
X98860193Y-96867308D02*
X98433188Y-96286217D01*
X98433188Y-96286217D02*
X99133813Y-96115560D01*
X98433188Y-96286217D02*
X98621303Y-95769392D01*
X98433188Y-96286217D02*
X98245073Y-96803054D01*
X98057305Y-96149414D02*
X98433188Y-96286217D01*
%TO.C,D2*%
X70590661Y-121908743D02*
X70317041Y-122660491D01*
X70453850Y-122284619D02*
X70923699Y-122455623D01*
X70317041Y-122660491D02*
X69890036Y-122079400D01*
X69890036Y-122079400D02*
X70590661Y-121908743D01*
X69890036Y-122079400D02*
X70078151Y-121562575D01*
X69890036Y-122079400D02*
X69701921Y-122596237D01*
X69514153Y-121942597D02*
X69890036Y-122079400D01*
%TO.C,D28*%
X144489398Y-184357704D02*
X144030544Y-185013025D01*
X144259972Y-184685362D02*
X144669548Y-184972151D01*
X144030544Y-185013025D02*
X143768479Y-184341225D01*
X143768479Y-184341225D02*
X144489398Y-184357704D01*
X143768479Y-184341225D02*
X144083951Y-183890682D01*
X143768479Y-184341225D02*
X143453013Y-184791750D01*
X143440820Y-184111787D02*
X143768479Y-184341225D01*
%TO.C,D6*%
X87505132Y-128065095D02*
X87231512Y-128816843D01*
X87368321Y-128440971D02*
X87838170Y-128611975D01*
X87231512Y-128816843D02*
X86804507Y-128235752D01*
X86804507Y-128235752D02*
X87505132Y-128065095D01*
X86804507Y-128235752D02*
X86992622Y-127718927D01*
X86804507Y-128235752D02*
X86616392Y-128752589D01*
X86428624Y-128098949D02*
X86804507Y-128235752D01*
%TO.C,D11*%
X106129702Y-129522995D02*
X105856082Y-130274743D01*
X105992891Y-129898871D02*
X106462740Y-130069875D01*
X105856082Y-130274743D02*
X105429077Y-129693652D01*
X105429077Y-129693652D02*
X106129702Y-129522995D01*
X105429077Y-129693652D02*
X105617192Y-129176827D01*
X105429077Y-129693652D02*
X105240962Y-130210489D01*
X105053194Y-129556849D02*
X105429077Y-129693652D01*
%TO.C,D41*%
X262769632Y-114128965D02*
X262069001Y-113958301D01*
X262632822Y-113753086D02*
X263102666Y-113582072D01*
X262496011Y-113377212D02*
X262769632Y-114128965D01*
X262069001Y-113958301D02*
X262496011Y-113377212D01*
X262069001Y-113958301D02*
X262257119Y-114475126D01*
X262069001Y-113958301D02*
X261880889Y-113441465D01*
X261693130Y-114095110D02*
X262069001Y-113958301D01*
%TO.C,D30*%
X309937351Y-138464247D02*
X309236720Y-138293583D01*
X309800541Y-138088368D02*
X310270385Y-137917354D01*
X309663730Y-137712494D02*
X309937351Y-138464247D01*
X309236720Y-138293583D02*
X309663730Y-137712494D01*
X309236720Y-138293583D02*
X309424838Y-138810408D01*
X309236720Y-138293583D02*
X309048608Y-137776747D01*
X308860849Y-138430392D02*
X309236720Y-138293583D01*
%TO.C,D20*%
X134144292Y-157810496D02*
X133870672Y-158562244D01*
X134007481Y-158186372D02*
X134477330Y-158357376D01*
X133870672Y-158562244D02*
X133443667Y-157981153D01*
X133443667Y-157981153D02*
X134144292Y-157810496D01*
X133443667Y-157981153D02*
X133631782Y-157464328D01*
X133443667Y-157981153D02*
X133255552Y-158497990D01*
X133067784Y-157844350D02*
X133443667Y-157981153D01*
D10*
%TO.C,MCU1*%
X195875101Y-161173217D02*
X195875097Y-128153220D01*
X195875097Y-128153220D02*
X178095094Y-128153219D01*
X180635097Y-133233218D02*
X178095098Y-133233222D01*
X180635097Y-130693222D02*
X180635097Y-133233218D01*
X180635097Y-130693222D02*
X178095091Y-130693221D01*
X178095097Y-161173219D02*
X195875101Y-161173217D01*
X178095094Y-128153219D02*
X178095097Y-161173219D01*
D11*
%TO.C,D13*%
X117758379Y-97573441D02*
X117484759Y-98325189D01*
X117621568Y-97949317D02*
X118091417Y-98120321D01*
X117484759Y-98325189D02*
X117057754Y-97744098D01*
X117057754Y-97744098D02*
X117758379Y-97573441D01*
X117057754Y-97744098D02*
X117245869Y-97227273D01*
X117057754Y-97744098D02*
X116869639Y-98260935D01*
X116681871Y-97607295D02*
X117057754Y-97744098D01*
%TO.C,D29*%
X169334545Y-195629198D02*
X168617797Y-195708449D01*
X169077427Y-195322776D02*
X169460450Y-195001383D01*
X168820312Y-195016361D02*
X169334545Y-195629198D01*
X168617797Y-195708449D02*
X168971335Y-196129776D01*
X168617797Y-195708449D02*
X168820312Y-195016361D01*
X168617797Y-195708449D02*
X168264265Y-195287127D01*
X168311382Y-195965569D02*
X168617797Y-195708449D01*
%TO.C,D33*%
X292494327Y-90539932D02*
X291793696Y-90369268D01*
X292357517Y-90164053D02*
X292827361Y-89993039D01*
X292220706Y-89788179D02*
X292494327Y-90539932D01*
X291793696Y-90369268D02*
X292220706Y-89788179D01*
X291793696Y-90369268D02*
X291981814Y-90886093D01*
X291793696Y-90369268D02*
X291605584Y-89852432D01*
X291417825Y-90506077D02*
X291793696Y-90369268D01*
%TO.C,D19*%
X128329946Y-173785278D02*
X128056326Y-174537026D01*
X128193135Y-174161154D02*
X128662984Y-174332158D01*
X128056326Y-174537026D02*
X127629321Y-173955935D01*
X127629321Y-173955935D02*
X128329946Y-173785278D01*
X127629321Y-173955935D02*
X127817436Y-173439110D01*
X127629321Y-173955935D02*
X127441206Y-174472772D01*
X127253438Y-173819132D02*
X127629321Y-173955935D01*
%TO.C,D45*%
X250814454Y-133910872D02*
X250113823Y-133740208D01*
X250677644Y-133534993D02*
X251147488Y-133363979D01*
X250540833Y-133159119D02*
X250814454Y-133910872D01*
X250113823Y-133740208D02*
X250540833Y-133159119D01*
X250113823Y-133740208D02*
X250301941Y-134257033D01*
X250113823Y-133740208D02*
X249925711Y-133223372D01*
X249737952Y-133877017D02*
X250113823Y-133740208D01*
%TO.C,D25*%
X156018052Y-150341316D02*
X155744432Y-151093064D01*
X155881241Y-150717192D02*
X156351090Y-150888196D01*
X155744432Y-151093064D02*
X155317427Y-150511973D01*
X155317427Y-150511973D02*
X156018052Y-150341316D01*
X155317427Y-150511973D02*
X155505542Y-149995148D01*
X155317427Y-150511973D02*
X155129312Y-151028810D01*
X154941544Y-150375170D02*
X155317427Y-150511973D01*
%TO.C,D12*%
X111944046Y-113548220D02*
X111670426Y-114299968D01*
X111807235Y-113924096D02*
X112277084Y-114095100D01*
X111670426Y-114299968D02*
X111243421Y-113718877D01*
X111243421Y-113718877D02*
X111944046Y-113548220D01*
X111243421Y-113718877D02*
X111431536Y-113202052D01*
X111243421Y-113718877D02*
X111055306Y-114235714D01*
X110867538Y-113582074D02*
X111243421Y-113718877D01*
%TO.C,D48*%
X246383725Y-174366012D02*
X245683094Y-174195348D01*
X246246915Y-173990133D02*
X246716759Y-173819119D01*
X246110104Y-173614259D02*
X246383725Y-174366012D01*
X245683094Y-174195348D02*
X246110104Y-173614259D01*
X245683094Y-174195348D02*
X245871212Y-174712173D01*
X245683094Y-174195348D02*
X245494982Y-173678512D01*
X245307223Y-174332157D02*
X245683094Y-174195348D01*
%TO.C,D23*%
X151587320Y-109886173D02*
X151313700Y-110637921D01*
X151450509Y-110262049D02*
X151920358Y-110433053D01*
X151313700Y-110637921D02*
X150886695Y-110056830D01*
X150886695Y-110056830D02*
X151587320Y-109886173D01*
X150886695Y-110056830D02*
X151074810Y-109540005D01*
X150886695Y-110056830D02*
X150698580Y-110573667D01*
X150510812Y-109920027D02*
X150886695Y-110056830D01*
%TO.C,D44*%
X256628785Y-149885650D02*
X255928154Y-149714986D01*
X256491975Y-149509771D02*
X256961819Y-149338757D01*
X256355164Y-149133897D02*
X256628785Y-149885650D01*
X255928154Y-149714986D02*
X256355164Y-149133897D01*
X255928154Y-149714986D02*
X256116272Y-150231811D01*
X255928154Y-149714986D02*
X255740042Y-149198150D01*
X255552283Y-149851795D02*
X255928154Y-149714986D01*
%TO.C,D10*%
X100315361Y-145497774D02*
X100041741Y-146249522D01*
X100178550Y-145873650D02*
X100648399Y-146044654D01*
X100041741Y-146249522D02*
X99614736Y-145668431D01*
X99614736Y-145668431D02*
X100315361Y-145497774D01*
X99614736Y-145668431D02*
X99802851Y-145151606D01*
X99614736Y-145668431D02*
X99426621Y-146185268D01*
X99238853Y-145531628D02*
X99614736Y-145668431D01*
%TO.C,D40*%
X268583972Y-130103742D02*
X267883341Y-129933078D01*
X268447162Y-129727863D02*
X268917006Y-129556849D01*
X268310351Y-129351989D02*
X268583972Y-130103742D01*
X267883341Y-129933078D02*
X268310351Y-129351989D01*
X267883341Y-129933078D02*
X268071459Y-130449903D01*
X267883341Y-129933078D02*
X267695229Y-129416242D01*
X267507470Y-130069887D02*
X267883341Y-129933078D01*
%TO.C,D3*%
X76405006Y-105933963D02*
X76131386Y-106685711D01*
X76268195Y-106309839D02*
X76738044Y-106480843D01*
X76131386Y-106685711D02*
X75704381Y-106104620D01*
X75704381Y-106104620D02*
X76405006Y-105933963D01*
X75704381Y-106104620D02*
X75892496Y-105587795D01*
X75704381Y-106104620D02*
X75516266Y-106621457D01*
X75328498Y-105967817D02*
X75704381Y-106104620D01*
%TO.C,D9*%
X94501007Y-161472558D02*
X94227387Y-162224306D01*
X94364196Y-161848434D02*
X94834045Y-162019438D01*
X94227387Y-162224306D02*
X93800382Y-161643215D01*
X93800382Y-161643215D02*
X94501007Y-161472558D01*
X93800382Y-161643215D02*
X93988497Y-161126390D01*
X93800382Y-161643215D02*
X93612267Y-162160052D01*
X93424499Y-161506412D02*
X93800382Y-161643215D01*
%TO.C,D53*%
X224509958Y-166896844D02*
X223809327Y-166726180D01*
X224373148Y-166520965D02*
X224842992Y-166349951D01*
X224236337Y-166145091D02*
X224509958Y-166896844D01*
X223809327Y-166726180D02*
X224236337Y-166145091D01*
X223809327Y-166726180D02*
X223997445Y-167243005D01*
X223809327Y-166726180D02*
X223621215Y-166209344D01*
X223433456Y-166862989D02*
X223809327Y-166726180D01*
%TO.C,D55*%
X212881271Y-134947289D02*
X212180640Y-134776625D01*
X212744461Y-134571410D02*
X213214305Y-134400396D01*
X212607650Y-134195536D02*
X212881271Y-134947289D01*
X212180640Y-134776625D02*
X212607650Y-134195536D01*
X212180640Y-134776625D02*
X212368758Y-135293450D01*
X212180640Y-134776625D02*
X211992528Y-134259789D01*
X211804769Y-134913434D02*
X212180640Y-134776625D01*
%TO.C,D51*%
X228940696Y-126441686D02*
X228240065Y-126271022D01*
X228803886Y-126065807D02*
X229273730Y-125894793D01*
X228667075Y-125689933D02*
X228940696Y-126441686D01*
X228240065Y-126271022D02*
X228667075Y-125689933D01*
X228240065Y-126271022D02*
X228428183Y-126787847D01*
X228240065Y-126271022D02*
X228051953Y-125754186D01*
X227864194Y-126407831D02*
X228240065Y-126271022D01*
%TO.C,D24*%
X150203702Y-166316095D02*
X149930082Y-167067843D01*
X150066891Y-166691971D02*
X150536740Y-166862975D01*
X149930082Y-167067843D02*
X149503077Y-166486752D01*
X149503077Y-166486752D02*
X150203702Y-166316095D01*
X149503077Y-166486752D02*
X149691192Y-165969927D01*
X149503077Y-166486752D02*
X149314962Y-167003589D01*
X149127194Y-166349949D02*
X149503077Y-166486752D01*
%TO.C,D15*%
X118084872Y-149304909D02*
X117811252Y-150056657D01*
X117948061Y-149680785D02*
X118417910Y-149851789D01*
X117811252Y-150056657D02*
X117384247Y-149475566D01*
X117384247Y-149475566D02*
X118084872Y-149304909D01*
X117384247Y-149475566D02*
X117572362Y-148958741D01*
X117384247Y-149475566D02*
X117196132Y-149992403D01*
X117008364Y-149338763D02*
X117384247Y-149475566D01*
%TO.C,D57*%
X230349225Y-184726230D02*
X229628307Y-184742712D01*
X230119795Y-184398575D02*
X230529370Y-184111786D01*
X229890363Y-184070908D02*
X230349225Y-184726230D01*
X229628307Y-184742712D02*
X229943767Y-185193251D01*
X229628307Y-184742712D02*
X229890363Y-184070908D01*
X229628307Y-184742712D02*
X229312838Y-184292182D01*
X229300642Y-184972146D02*
X229628307Y-184742712D01*
%TO.C,D4*%
X82219359Y-89959188D02*
X81945739Y-90710936D01*
X82082548Y-90335064D02*
X82552397Y-90506068D01*
X81945739Y-90710936D02*
X81518734Y-90129845D01*
X81518734Y-90129845D02*
X82219359Y-89959188D01*
X81518734Y-90129845D02*
X81706849Y-89613020D01*
X81518734Y-90129845D02*
X81330619Y-90646682D01*
X81142851Y-89993042D02*
X81518734Y-90129845D01*
%TO.C,D43*%
X262443140Y-165860421D02*
X261742509Y-165689757D01*
X262306330Y-165484542D02*
X262776174Y-165313528D01*
X262169519Y-165108668D02*
X262443140Y-165860421D01*
X261742509Y-165689757D02*
X262169519Y-165108668D01*
X261742509Y-165689757D02*
X261930627Y-166206582D01*
X261742509Y-165689757D02*
X261554397Y-165172921D01*
X261366638Y-165826566D02*
X261742509Y-165689757D01*
%TO.C,D56*%
X207066932Y-118972509D02*
X206366301Y-118801845D01*
X206930122Y-118596630D02*
X207399966Y-118425616D01*
X206793311Y-118220756D02*
X207066932Y-118972509D01*
X206366301Y-118801845D02*
X206793311Y-118220756D01*
X206366301Y-118801845D02*
X206554419Y-119318670D01*
X206366301Y-118801845D02*
X206178189Y-118285009D01*
X205990430Y-118938654D02*
X206366301Y-118801845D01*
%TO.C,D37*%
X275579850Y-96696290D02*
X274879219Y-96525626D01*
X275443040Y-96320411D02*
X275912884Y-96149397D01*
X275306229Y-95944537D02*
X275579850Y-96696290D01*
X274879219Y-96525626D02*
X275306229Y-95944537D01*
X274879219Y-96525626D02*
X275067337Y-97042451D01*
X274879219Y-96525626D02*
X274691107Y-96008790D01*
X274503348Y-96662435D02*
X274879219Y-96525626D01*
%TO.C,D18*%
X135527903Y-101380572D02*
X135254283Y-102132320D01*
X135391092Y-101756448D02*
X135860941Y-101927452D01*
X135254283Y-102132320D02*
X134827278Y-101551229D01*
X134827278Y-101551229D02*
X135527903Y-101380572D01*
X134827278Y-101551229D02*
X135015393Y-101034404D01*
X134827278Y-101551229D02*
X134639163Y-102068066D01*
X134451395Y-101414426D02*
X134827278Y-101551229D01*
%TO.C,D34*%
X293022886Y-144620626D02*
X292322255Y-144449962D01*
X292886076Y-144244747D02*
X293355920Y-144073733D01*
X292749265Y-143868873D02*
X293022886Y-144620626D01*
X292322255Y-144449962D02*
X292749265Y-143868873D01*
X292322255Y-144449962D02*
X292510373Y-144966787D01*
X292322255Y-144449962D02*
X292134143Y-143933126D01*
X291946384Y-144586771D02*
X292322255Y-144449962D01*
%TO.C,D47*%
X239185777Y-101961324D02*
X238485146Y-101790660D01*
X239048967Y-101585445D02*
X239518811Y-101414431D01*
X238912156Y-101209571D02*
X239185777Y-101961324D01*
X238485146Y-101790660D02*
X238912156Y-101209571D01*
X238485146Y-101790660D02*
X238673264Y-102307485D01*
X238485146Y-101790660D02*
X238297034Y-101273824D01*
X238109275Y-101927469D02*
X238485146Y-101790660D01*
%TD*%
D12*
%TO.C,MCU1*%
X194605094Y-159903220D03*
X194605093Y-157363219D03*
X194605098Y-154823221D03*
X194605096Y-152283218D03*
X194605093Y-149743220D03*
X194605095Y-147203225D03*
X194605095Y-144663218D03*
X194605095Y-142123221D03*
X194605093Y-139583223D03*
X194605095Y-137043215D03*
X194605098Y-134503216D03*
X194605095Y-131963224D03*
X179365097Y-159903214D03*
X179365094Y-157363222D03*
X179365097Y-154823223D03*
X179365099Y-152283215D03*
X179365097Y-149743217D03*
X179365097Y-147203220D03*
X179365097Y-144663213D03*
X179365099Y-142123218D03*
X179365096Y-139583220D03*
X179365094Y-137043217D03*
X179365099Y-134503219D03*
D13*
X179365098Y-131963218D03*
%TD*%
M02*
