M48
; DRILL file {KiCad 9.0.1} date 2025-04-16T06:47:57+0700
; FORMAT={-:-/ absolute / metric / decimal}
; #@! TF.CreationDate,2025-04-16T06:47:57+07:00
; #@! TF.GenerationSoftware,Kicad,Pcbnew,9.0.1
; #@! TF.FileFunction,NonPlated,1,2,NPTH
FMAT,2
METRIC
; #@! TA.AperFunction,NonPlated,NPTH,ComponentDrill
T1C1.702
; #@! TA.AperFunction,NonPlated,NPTH,ComponentDrill
T2C3.000
; #@! TA.AperFunction,NonPlated,NPTH,ComponentDrill
T3C3.429
%
G90
G05
T1
X60.946Y-131.594
X66.761Y-115.62
X71.283Y-135.357
X72.575Y-99.645
X77.097Y-119.382
X77.861Y-137.751
X78.389Y-83.67
X82.912Y-103.407
X83.675Y-121.776
X88.197Y-141.513
X88.726Y-87.432
X89.49Y-105.801
X90.671Y-155.183
X94.012Y-125.538
X95.304Y-89.826
X96.485Y-139.209
X99.826Y-109.563
X101.008Y-158.946
X102.3Y-123.234
X105.64Y-93.589
X106.822Y-142.971
X108.114Y-107.259
X108.441Y-158.99
X112.636Y-126.996
X113.928Y-91.284
X114.255Y-143.016
X118.451Y-111.021
X118.777Y-162.753
X120.069Y-127.041
X124.265Y-95.046
X124.5Y-167.496
X124.592Y-146.778
X125.884Y-111.066
X130.314Y-151.521
X130.406Y-130.803
X131.698Y-95.091
X134.837Y-171.258
X136.129Y-135.547
X136.22Y-114.828
X140.651Y-155.284
X141.943Y-119.572
X142.035Y-98.854
X142.418Y-177.292
X146.374Y-160.027
X146.465Y-139.309
X147.757Y-103.597
X151.428Y-183.601
X152.188Y-144.052
X152.28Y-123.334
X156.71Y-163.789
X158.002Y-128.077
X158.094Y-107.359
X161.459Y-195.189
X162.525Y-147.814
X163.817Y-112.103
X168.339Y-131.84
X169.885Y-188.118
X174.153Y-115.865
X199.817Y-115.865
X204.085Y-188.118
X205.631Y-131.84
X210.153Y-112.103
X211.445Y-147.814
X212.511Y-195.189
X215.876Y-107.359
X215.968Y-128.077
X217.26Y-163.789
X221.691Y-123.334
X221.782Y-144.052
X222.542Y-183.601
X226.213Y-103.597
X227.505Y-139.309
X227.596Y-160.027
X231.552Y-177.292
X231.936Y-98.854
X232.027Y-119.572
X233.319Y-155.284
X237.75Y-114.828
X237.842Y-135.547
X239.134Y-171.258
X242.272Y-95.091
X243.564Y-130.803
X243.656Y-151.521
X248.087Y-111.066
X249.379Y-146.778
X249.47Y-167.496
X249.705Y-95.046
X253.901Y-127.041
X255.193Y-162.753
X255.519Y-111.021
X259.715Y-143.016
X260.042Y-91.284
X261.334Y-126.996
X265.53Y-158.99
X265.856Y-107.259
X267.148Y-142.971
X268.33Y-93.589
X271.67Y-123.234
X272.963Y-158.946
X274.144Y-109.563
X277.485Y-139.209
X278.666Y-89.826
X279.958Y-125.538
X283.299Y-155.183
X284.481Y-105.801
X285.244Y-87.432
X285.773Y-141.513
X290.295Y-121.776
X291.059Y-103.407
X295.581Y-83.67
X296.109Y-137.751
X296.873Y-119.382
X301.395Y-99.645
X302.687Y-135.357
X307.209Y-115.62
X313.024Y-131.594
T2
X68.15Y-127.884
X72.096Y-131.662
X73.964Y-111.909
X77.91Y-115.687
X79.778Y-95.935
X83.724Y-99.712
X85.064Y-134.041
X85.593Y-79.96
X89.01Y-137.818
X89.539Y-83.737
X90.879Y-118.066
X94.825Y-121.843
X96.693Y-102.091
X97.874Y-151.473
X100.639Y-105.868
X101.82Y-155.251
X102.507Y-86.116
X103.689Y-135.499
X106.453Y-89.894
X107.635Y-139.276
X109.503Y-119.524
X113.449Y-123.301
X115.317Y-103.549
X115.644Y-155.28
X119.263Y-107.326
X119.59Y-159.058
X121.132Y-87.574
X121.458Y-139.306
X125.078Y-91.352
X125.404Y-143.083
X127.273Y-123.331
X131.219Y-127.108
X131.703Y-163.786
X133.087Y-107.356
X135.649Y-167.563
X137.033Y-111.134
X137.518Y-147.811
X138.901Y-91.381
X141.464Y-151.589
X142.847Y-95.159
X143.332Y-131.836
X147.278Y-135.614
X149.146Y-115.862
X150.336Y-175.572
X153.092Y-119.639
X153.17Y-180.242
X153.577Y-156.317
X154.961Y-99.887
X157.523Y-160.094
X158.907Y-103.664
X159.391Y-140.342
X161.847Y-187.095
X163.337Y-144.119
X165.206Y-124.367
X167.092Y-185.567
X169.152Y-128.145
X171.02Y-108.393
X174.966Y-112.17
X202.95Y-108.393
X208.401Y-108.75
X208.764Y-124.367
X212.123Y-187.095
X214.215Y-124.724
X214.539Y-191.995
X214.579Y-140.342
X219.009Y-99.887
X220.03Y-140.699
X220.393Y-156.317
X223.634Y-175.572
X224.46Y-100.244
X224.824Y-115.862
X225.844Y-156.674
X228.992Y-174.506
X230.275Y-116.219
X230.638Y-131.836
X235.069Y-91.381
X236.089Y-132.194
X236.453Y-147.811
X240.52Y-91.739
X240.883Y-107.356
X241.903Y-148.168
X242.267Y-163.786
X246.334Y-107.713
X246.698Y-123.331
X247.718Y-164.143
X252.149Y-123.688
X252.512Y-139.306
X252.838Y-87.574
X257.963Y-139.663
X258.289Y-87.931
X258.326Y-155.28
X258.653Y-103.549
X263.777Y-155.638
X264.104Y-103.906
X264.467Y-119.524
X269.918Y-119.881
X270.281Y-135.499
X271.463Y-86.116
X275.732Y-135.856
X276.096Y-151.473
X276.914Y-86.474
X277.277Y-102.091
X281.547Y-151.831
X282.728Y-102.448
X283.092Y-118.066
X288.377Y-79.96
X288.543Y-118.423
X288.906Y-134.041
X293.828Y-80.317
X294.192Y-95.935
X294.357Y-134.398
X299.643Y-96.292
X300.006Y-111.909
X305.457Y-112.267
X305.821Y-127.884
X311.271Y-128.241
T3
X66.115Y-133.475
X71.929Y-117.501
X77.743Y-101.526
X83.029Y-139.632
X83.558Y-85.551
X88.843Y-123.657
X94.658Y-107.682
X95.839Y-157.064
X100.472Y-91.707
X101.654Y-141.09
X107.468Y-125.115
X113.282Y-109.14
X113.609Y-160.872
X119.097Y-93.165
X119.423Y-144.897
X125.238Y-128.922
X129.668Y-169.377
X131.052Y-112.947
X135.483Y-153.402
X136.866Y-96.972
X141.297Y-137.428
X146.923Y-180.446
X147.111Y-121.453
X151.542Y-161.908
X152.926Y-105.478
X157.356Y-145.933
X163.171Y-129.958
X165.672Y-191.653
X168.985Y-113.984
X204.985Y-113.984
X208.298Y-191.653
X210.799Y-129.958
X216.614Y-145.933
X221.045Y-105.478
X222.428Y-161.908
X226.859Y-121.453
X227.047Y-180.446
X232.673Y-137.428
X237.104Y-96.972
X238.488Y-153.402
X242.918Y-112.947
X244.302Y-169.377
X248.733Y-128.922
X254.547Y-144.897
X254.873Y-93.165
X260.361Y-160.872
X260.688Y-109.14
X266.502Y-125.115
X272.316Y-141.09
X273.498Y-91.707
X278.131Y-157.064
X279.312Y-107.682
X285.127Y-123.657
X290.412Y-85.551
X290.941Y-139.632
X296.227Y-101.526
X302.041Y-117.501
X307.856Y-133.475
M30
