%TF.GenerationSoftware,KiCad,Pcbnew,9.0.1*%
%TF.CreationDate,2025-04-16T06:47:58+07:00*%
%TF.ProjectId,tutorial,7475746f-7269-4616-9c2e-6b696361645f,v1.0.0*%
%TF.SameCoordinates,Original*%
%TF.FileFunction,Paste,Top*%
%TF.FilePolarity,Positive*%
%FSLAX46Y46*%
G04 Gerber Fmt 4.6, Leading zero omitted, Abs format (unit mm)*
G04 Created by KiCad (PCBNEW 9.0.1) date 2025-04-16 06:47:58*
%MOMM*%
%LPD*%
G01*
G04 APERTURE LIST*
G04 Aperture macros list*
%AMRotRect*
0 Rectangle, with rotation*
0 The origin of the aperture is its center*
0 $1 length*
0 $2 width*
0 $3 Rotation angle, in degrees counterclockwise*
0 Add horizontal line*
21,1,$1,$2,0,0,$3*%
G04 Aperture macros list end*
%ADD10R,1.100000X1.800000*%
%ADD11RotRect,0.900000X1.200000X20.000000*%
%ADD12RotRect,0.900000X1.200000X340.000000*%
%ADD13RotRect,0.900000X1.200000X320.000000*%
%ADD14RotRect,0.900000X1.200000X325.000000*%
%ADD15RotRect,0.900000X1.200000X40.000000*%
%ADD16RotRect,0.900000X1.200000X35.000000*%
G04 APERTURE END LIST*
D10*
%TO.C,B1*%
X185135097Y-173477182D03*
X185135100Y-167277175D03*
X188835094Y-173477181D03*
X188835097Y-167277174D03*
%TD*%
D11*
%TO.C,D31*%
X305301777Y-121634773D03*
X302200783Y-122763439D03*
%TD*%
%TO.C,D49*%
X241748147Y-157536540D03*
X238647153Y-158665206D03*
%TD*%
D12*
%TO.C,D5*%
X82869534Y-144894575D03*
X79768556Y-143765913D03*
%TD*%
%TO.C,D1*%
X65955075Y-138738210D03*
X62854097Y-137609548D03*
%TD*%
%TO.C,D16*%
X125077966Y-134184822D03*
X121976988Y-133056160D03*
%TD*%
D11*
%TO.C,D32*%
X299487419Y-105659999D03*
X296386425Y-106788665D03*
%TD*%
%TO.C,D38*%
X281391409Y-161198585D03*
X278290415Y-162327251D03*
%TD*%
D12*
%TO.C,D26*%
X163011148Y-135221239D03*
X159910170Y-134092577D03*
%TD*%
%TO.C,D17*%
X130892308Y-118210051D03*
X127791330Y-117081389D03*
%TD*%
D11*
%TO.C,D39*%
X275577084Y-145223810D03*
X272476090Y-146352476D03*
%TD*%
D12*
%TO.C,D27*%
X168825492Y-119246471D03*
X165724514Y-118117809D03*
%TD*%
D11*
%TO.C,D35*%
X288387295Y-127791129D03*
X285286301Y-128919795D03*
%TD*%
%TO.C,D46*%
X246178867Y-117081390D03*
X243077873Y-118210056D03*
%TD*%
D12*
%TO.C,D7*%
X94498223Y-112945019D03*
X91397245Y-111816357D03*
%TD*%
%TO.C,D21*%
X141137384Y-142690421D03*
X138036406Y-141561759D03*
%TD*%
D11*
%TO.C,D52*%
X224305105Y-109612199D03*
X221204111Y-110740865D03*
%TD*%
D12*
%TO.C,D22*%
X146951730Y-126715654D03*
X143850752Y-125586992D03*
%TD*%
%TO.C,D14*%
X113449286Y-166134381D03*
X110348308Y-165005719D03*
%TD*%
D13*
%TO.C,D58*%
X206348259Y-196544079D03*
X203820313Y-194422873D03*
%TD*%
D11*
%TO.C,D36*%
X282572953Y-111816358D03*
X279471959Y-112945024D03*
%TD*%
%TO.C,D50*%
X235933801Y-141561760D03*
X232832807Y-142690426D03*
%TD*%
%TO.C,D54*%
X219874379Y-150067345D03*
X216773385Y-151196011D03*
%TD*%
%TO.C,D42*%
X258134058Y-97299483D03*
X255033064Y-98428149D03*
%TD*%
D12*
%TO.C,D8*%
X100312567Y-96970258D03*
X97211589Y-95841596D03*
%TD*%
%TO.C,D2*%
X71769415Y-122763441D03*
X68668437Y-121634779D03*
%TD*%
D14*
%TO.C,D28*%
X145406789Y-185488367D03*
X142703579Y-183595571D03*
%TD*%
D12*
%TO.C,D6*%
X88683886Y-128919793D03*
X85582908Y-127791131D03*
%TD*%
%TO.C,D11*%
X107308456Y-130377693D03*
X104207478Y-129249031D03*
%TD*%
D11*
%TO.C,D41*%
X263948395Y-113274258D03*
X260847401Y-114402924D03*
%TD*%
%TO.C,D30*%
X311116114Y-137609540D03*
X308015120Y-138738206D03*
%TD*%
D12*
%TO.C,D20*%
X135323046Y-158665194D03*
X132222068Y-157536532D03*
%TD*%
%TO.C,D13*%
X118937133Y-98428139D03*
X115836155Y-97299477D03*
%TD*%
D15*
%TO.C,D29*%
X170149886Y-194422875D03*
X167621946Y-196544077D03*
%TD*%
D11*
%TO.C,D33*%
X293673090Y-89685225D03*
X290572096Y-90813891D03*
%TD*%
D12*
%TO.C,D19*%
X129508700Y-174639976D03*
X126407722Y-173511314D03*
%TD*%
D11*
%TO.C,D45*%
X251993217Y-133056165D03*
X248892223Y-134184831D03*
%TD*%
D12*
%TO.C,D25*%
X157196806Y-151196014D03*
X154095828Y-150067352D03*
%TD*%
%TO.C,D12*%
X113122800Y-114402918D03*
X110021822Y-113274256D03*
%TD*%
D11*
%TO.C,D48*%
X247562488Y-173511305D03*
X244461494Y-174639971D03*
%TD*%
D12*
%TO.C,D23*%
X152766074Y-110740871D03*
X149665096Y-109612209D03*
%TD*%
D11*
%TO.C,D44*%
X257807548Y-149030943D03*
X254706554Y-150159609D03*
%TD*%
D12*
%TO.C,D10*%
X101494115Y-146352472D03*
X98393137Y-145223810D03*
%TD*%
D11*
%TO.C,D40*%
X269762735Y-129249035D03*
X266661741Y-130377701D03*
%TD*%
D12*
%TO.C,D3*%
X77583760Y-106788661D03*
X74482782Y-105659999D03*
%TD*%
%TO.C,D9*%
X95679761Y-162327256D03*
X92578783Y-161198594D03*
%TD*%
D11*
%TO.C,D53*%
X225688721Y-166042137D03*
X222587727Y-167170803D03*
%TD*%
%TO.C,D55*%
X214060034Y-134092582D03*
X210959040Y-135221248D03*
%TD*%
%TO.C,D51*%
X230119459Y-125586979D03*
X227018465Y-126715645D03*
%TD*%
D12*
%TO.C,D24*%
X151382456Y-167170793D03*
X148281478Y-166042131D03*
%TD*%
%TO.C,D15*%
X119263626Y-150159607D03*
X116162648Y-149030945D03*
%TD*%
D16*
%TO.C,D57*%
X231266606Y-183595564D03*
X228563406Y-185488368D03*
%TD*%
D12*
%TO.C,D4*%
X83398113Y-90813886D03*
X80297135Y-89685224D03*
%TD*%
D11*
%TO.C,D43*%
X263621903Y-165005714D03*
X260520909Y-166134380D03*
%TD*%
%TO.C,D56*%
X208245695Y-118117802D03*
X205144701Y-119246468D03*
%TD*%
%TO.C,D37*%
X276758613Y-95841583D03*
X273657619Y-96970249D03*
%TD*%
D12*
%TO.C,D18*%
X136706657Y-102235270D03*
X133605679Y-101106608D03*
%TD*%
D11*
%TO.C,D34*%
X294201649Y-143765919D03*
X291100655Y-144894585D03*
%TD*%
%TO.C,D47*%
X240364540Y-101106617D03*
X237263546Y-102235283D03*
%TD*%
M02*
