0
SECTION
2
HEADER
9
$INSUNITS
70
4
0
ENDSEC
0
SECTION
2
TABLES
0
TABLE
2
LTYPE
0
LTYPE
72
65
70
64
2
CONTINUOUS
3
______
73
0
40
0
0
ENDTAB
0
TABLE
2
LAYER
0
ENDTAB
0
ENDSEC
0
SECTION
2
ENTITIES
0
LINE
8
0
10
53.4285009
20
-116.3487962
11
76.2812819
21
-53.5612967
0
LINE
8
0
10
78.5796597
20
-52.289718
11
130.0502775
21
-63.3173323
0
LINE
8
0
10
130.3153251
20
-63.393566
11
148.8493976
21
-70.1394167
0
LINE
8
0
10
149.101438
20
-70.2513876
11
179.5592159
21
-86.3828262
0
LINE
8
0
10
180.5025205
20
-88.8342807
11
176.2606896
21
-100.4886154
0
LINE
8
0
10
178.1400749
20
-103.1726556
11
194.7639325
21
-103.1726556
0
LINE
8
0
10
196.6433178
20
-100.4886154
11
192.4014869
21
-88.8342807
0
LINE
8
0
10
193.3447915
20
-86.3828262
11
223.8025694
21
-70.2513876
0
LINE
8
0
10
224.0546098
20
-70.1394167
11
242.5886823
21
-63.393566
0
LINE
8
0
10
242.8537299
20
-63.3173323
11
294.3243477
21
-52.289718
0
LINE
8
0
10
296.6227255
20
-53.5612967
11
319.4755065
21
-116.3487962
0
LINE
8
0
10
318.8393727
20
-118.5994652
11
290.4744375
21
-141.1094203
0
LINE
8
0
10
289.9702981
20
-141.4012084
11
240.3880937
21
-161.1205707
0
LINE
8
0
10
239.9512073
20
-161.3612646
11
209.8789151
21
-183.2222201
0
LINE
8
0
10
207.4173414
20
-183.136586
11
194.6174573
21
-172.3962078
0
LINE
8
0
10
193.331882
20
-171.9282967
11
179.5721254
21
-171.9282967
0
LINE
8
0
10
178.2865501
20
-172.3962078
11
165.486666
21
-183.136586
0
LINE
8
0
10
163.0250923
20
-183.2222201
11
132.9528001
21
-161.3612646
0
LINE
8
0
10
132.5159137
20
-161.1205707
11
82.9337093
21
-141.4012084
0
LINE
8
0
10
82.4295699
20
-141.1094203
11
54.0646347
21
-118.5994652
0
ARC
8
0
10
78.1606671
20
-54.2453369
40
2
50
77.9071637
51
160.0000019
0
ARC
8
0
10
129.6312849
20
-65.2729512
40
2
50
70.0000019
51
77.9071637
0
ARC
8
0
10
148.1653574
20
-72.0188019
40
2
50
62.0928362
51
70.0000019
0
ARC
8
0
10
178.6231353
20
-88.1502405
40
2
50
340.0000019
51
62.0928362
0
ARC
8
0
10
178.1400749
20
-101.1726556
40
2
50
160.0000019
51
270
0
ARC
8
0
10
194.7639325
20
-101.1726556
40
2
50
270
51
19.9999981
0
ARC
8
0
10
194.2808721
20
-88.1502405
40
2
50
117.9071638
51
199.9999981
0
ARC
8
0
10
224.73865
20
-72.0188019
40
2
50
109.9999981
51
117.9071638
0
ARC
8
0
10
243.2727225
20
-65.2729512
40
2
50
102.0928363
51
109.9999981
0
ARC
8
0
10
294.7433403
20
-54.2453369
40
2
50
19.9999981
51
102.0928363
0
ARC
8
0
10
317.5961212
20
-117.0328364
40
2
50
308.43495
51
19.9999981
0
ARC
8
0
10
289.2311861
20
-139.5427914
40
2
50
291.6882364
51
308.43495
0
ARC
8
0
10
241.1272057
20
-162.9789877
40
2
50
111.6882364
51
126.0151539
0
ARC
8
0
10
208.7029167
20
-181.6044971
40
2
50
229.9999988
51
306.0151539
0
ARC
8
0
10
193.331882
20
-173.9282967
40
2
50
49.9999988
51
90
0
ARC
8
0
10
179.5721254
20
-173.9282967
40
2
50
90
51
130.0000012
0
ARC
8
0
10
164.2010907
20
-181.6044971
40
2
50
233.9848461
51
310.0000012
0
ARC
8
0
10
131.7768017
20
-162.9789877
40
2
50
53.9848461
51
68.3117636
0
ARC
8
0
10
83.6728213
20
-139.5427914
40
2
50
231.56505
51
248.3117636
0
ARC
8
0
10
55.3078862
20
-117.0328364
40
2
50
160.0000019
51
231.56505
0
ENDSEC
0
EOF