0
SECTION
2
HEADER
9
$INSUNITS
70
4
0
ENDSEC
0
SECTION
2
TABLES
0
TABLE
2
LTYPE
0
LTYPE
72
65
70
64
2
CONTINUOUS
3
______
73
0
40
0
0
ENDTAB
0
TABLE
2
LAYER
0
ENDTAB
0
ENDSEC
0
SECTION
2
ENTITIES
0
LINE
8
0
10
52.9354726
20
-117.7033804
11
86.764407
21
-130.0161054
0
LINE
8
0
10
52.9354726
20
-117.7033804
11
76.8768827
21
-51.9248969
0
LINE
8
0
10
76.8768827
20
-51.9248969
11
110.7058171
21
-64.237622
0
LINE
8
0
10
82.6601652
20
-141.292417
11
101.4540176
21
-148.1328198
0
LINE
8
0
10
101.4540176
20
-148.1328198
11
102.3090679
21
-145.7835883
0
LINE
8
0
10
86.764407
20
-130.0161054
11
82.6601652
21
-141.292417
0
LINE
8
0
10
129.3303849
20
-65.6955215
11
112.4159178
21
-59.539159
0
LINE
8
0
10
112.4159178
20
-59.539159
11
110.7058171
21
-64.237622
0
LINE
8
0
10
102.3090679
20
-145.7835883
11
117.34415
21
-151.2559106
0
LINE
8
0
10
148.1242373
20
-72.5359244
11
148.9792877
21
-70.1866928
0
LINE
8
0
10
148.9792877
20
-70.1866928
11
130.1854353
21
-63.34629
0
LINE
8
0
10
130.1854353
20
-63.34629
11
129.3303849
21
-65.6955215
0
LINE
8
0
10
116.4890996
20
-153.6051421
11
133.692515
21
-159.8666732
0
LINE
8
0
10
137.4433307
20
-154.5099531
11
140.242244
21
-146.820002
0
LINE
8
0
10
117.34415
20
-151.2559106
11
116.4890996
21
-153.6051421
0
LINE
8
0
10
164.1836541
20
-81.0415185
11
165.0387045
21
-78.6922869
0
LINE
8
0
10
165.0387045
20
-78.6922869
11
148.1242373
21
-72.5359244
0
LINE
8
0
10
140.242244
20
-146.820002
11
142.3027602
21
-147.5699685
0
LINE
8
0
10
150.8144427
20
-150.6679676
11
157.1567112
21
-152.9763645
0
LINE
8
0
10
157.1567112
20
-152.9763645
11
181.0981213
21
-87.197881
0
LINE
8
0
10
181.0981213
20
-87.197881
11
164.1836541
21
-81.0415185
0
LINE
8
0
10
132.7494823
20
-161.2134634
11
149.1325232
21
-172.6849921
0
LINE
8
0
10
149.1325232
20
-172.6849921
11
160.0304755
21
-157.1211032
0
LINE
8
0
10
160.0304755
20
-157.1211032
11
150.8144427
21
-150.6679676
0
LINE
8
0
10
133.692515
20
-159.8666732
11
132.7494823
21
-161.2134634
0
LINE
8
0
10
142.3027602
20
-147.5699685
11
137.4433307
21
-154.5099531
0
LINE
8
0
10
163.5849245
20
-184.0796329
11
178.9058133
21
-171.2238807
0
LINE
8
0
10
178.9058133
20
-171.2238807
11
166.6928487
21
-156.6690363
0
LINE
8
0
10
166.6928487
20
-156.6690363
11
151.3719599
21
-169.5247885
0
LINE
8
0
10
151.3719599
20
-169.5247885
11
163.5849245
21
-184.0796329
0
LINE
8
0
10
286.1396004
20
-130.0161054
11
319.9685348
21
-117.7033804
0
LINE
8
0
10
296.0271247
20
-51.9248969
11
319.9685348
21
-117.7033804
0
LINE
8
0
10
262.1981903
20
-64.237622
11
296.0271247
21
-51.9248969
0
LINE
8
0
10
271.4499898
20
-148.1328198
11
290.2438422
21
-141.292417
0
LINE
8
0
10
290.2438422
20
-141.292417
11
286.1396004
21
-130.0161054
0
LINE
8
0
10
270.5949395
20
-145.7835883
11
271.4499898
21
-148.1328198
0
LINE
8
0
10
262.1981903
20
-64.237622
11
260.4880896
21
-59.539159
0
LINE
8
0
10
260.4880896
20
-59.539159
11
243.5736225
21
-65.6955215
0
LINE
8
0
10
255.5598574
20
-151.2559106
11
270.5949395
21
-145.7835883
0
LINE
8
0
10
243.5736225
20
-65.6955215
11
242.7185721
21
-63.34629
0
LINE
8
0
10
242.7185721
20
-63.34629
11
223.9247197
21
-70.1866928
0
LINE
8
0
10
223.9247197
20
-70.1866928
11
224.7797701
21
-72.5359244
0
LINE
8
0
10
239.2114924
20
-159.8666732
11
256.4149078
21
-153.6051421
0
LINE
8
0
10
256.4149078
20
-153.6051421
11
255.5598574
21
-151.2559106
0
LINE
8
0
10
232.6617634
20
-146.820002
11
235.4606767
21
-154.5099531
0
LINE
8
0
10
224.7797701
20
-72.5359244
11
207.8653029
21
-78.6922869
0
LINE
8
0
10
207.8653029
20
-78.6922869
11
208.7203533
21
-81.0415185
0
LINE
8
0
10
215.7472962
20
-152.9763645
11
222.0895647
21
-150.6679676
0
LINE
8
0
10
230.6012472
20
-147.5699685
11
232.6617634
21
-146.820002
0
LINE
8
0
10
191.8058861
20
-87.197881
11
215.7472962
21
-152.9763645
0
LINE
8
0
10
208.7203533
20
-81.0415185
11
191.8058861
21
-87.197881
0
LINE
8
0
10
223.7714842
20
-172.6849921
11
240.1545251
21
-161.2134634
0
LINE
8
0
10
240.1545251
20
-161.2134634
11
239.2114924
21
-159.8666732
0
LINE
8
0
10
235.4606767
20
-154.5099531
11
230.6012472
21
-147.5699685
0
LINE
8
0
10
222.0895647
20
-150.6679676
11
212.8735319
21
-157.1211032
0
LINE
8
0
10
212.8735319
20
-157.1211032
11
223.7714842
21
-172.6849921
0
LINE
8
0
10
193.9981941
20
-171.2238807
11
209.3190829
21
-184.0796329
0
LINE
8
0
10
209.3190829
20
-184.0796329
11
221.5320475
21
-169.5247885
0
LINE
8
0
10
221.5320475
20
-169.5247885
11
206.2111587
21
-156.6690363
0
LINE
8
0
10
206.2111587
20
-156.6690363
11
193.9981941
21
-171.2238807
0
ENDSEC
0
EOF